<svg width="42" height="42" viewBox="0 0 42 42" fill="none" xmlns="http://www.w3.org/2000/svg">
<path d="M21 0C9.42072 0 0 9.42072 0 21C0 32.5793 9.42072 42 21 42C32.5793 42 42 32.5793 42 21C42 9.42072 32.5793 0 21 0ZM29.0769 22.6154H12.9231C12.4946 22.6154 12.0838 22.4452 11.7808 22.1423C11.4779 21.8393 11.3077 21.4284 11.3077 21C11.3077 20.5716 11.4779 20.1607 11.7808 19.8578C12.0838 19.5548 12.4946 19.3846 12.9231 19.3846H29.0769C29.5053 19.3846 29.9162 19.5548 30.2192 19.8578C30.5221 20.1607 30.6923 20.5716 30.6923 21C30.6923 21.4284 30.5221 21.8393 30.2192 22.1423C29.9162 22.4452 29.5053 22.6154 29.0769 22.6154Z" fill="#FF3326"/>
</svg>
