<svg width="22" height="22" viewBox="0 0 26 26" fill="none" xmlns="http://www.w3.org/2000/svg">
<path d="M25.7226 10.1284C25.1225 7.30496 23.5312 4.73513 21.2411 2.8925C18.8992 1.01871 15.9889 -0.00148026 12.9896 1.6121e-06C9.45406 1.6121e-06 6.15183 1.3621 3.683 3.83558C1.29716 6.22897 -0.0103843 9.38902 6.21138e-05 12.7313C0.000143338 15.1817 0.71954 17.5782 2.06903 19.6236L2.32149 19.9747L0.928631 26L7.59112 24.3425C7.59112 24.3425 7.7246 24.3872 7.82326 24.4249C7.92192 24.4626 8.77098 24.7882 9.67169 25.0401C10.4203 25.249 11.978 25.5624 13.1985 25.5624C16.6603 25.5624 19.8929 24.2218 22.3002 21.7866C24.6861 19.3706 26 16.1583 26 12.7383C26.0002 11.8609 25.9072 10.9861 25.7226 10.1284V10.1284ZM7.42862 14.8571C7.06131 14.8571 6.70225 14.7482 6.39684 14.5442C6.09144 14.3401 5.85341 14.05 5.71284 13.7107C5.57228 13.3714 5.5355 12.9979 5.60716 12.6377C5.67882 12.2774 5.8557 11.9465 6.11542 11.6868C6.37515 11.4271 6.70606 11.2502 7.06631 11.1785C7.42656 11.1069 7.79996 11.1437 8.13931 11.2842C8.47866 11.4248 8.7687 11.6628 8.97277 11.9682C9.17683 12.2736 9.28575 12.6327 9.28575 13C9.28575 13.4925 9.09009 13.9649 8.74181 14.3132C8.39353 14.6615 7.92116 14.8571 7.42862 14.8571ZM13 14.8571C12.6327 14.8571 12.2737 14.7482 11.9683 14.5442C11.6629 14.3401 11.4248 14.05 11.2843 13.7107C11.1437 13.3714 11.1069 12.9979 11.1786 12.6377C11.2502 12.2774 11.4271 11.9465 11.6868 11.6868C11.9466 11.4271 12.2775 11.2502 12.6377 11.1785C12.998 11.1069 13.3714 11.1437 13.7107 11.2842C14.0501 11.4248 14.3401 11.6628 14.5442 11.9682C14.7482 12.2736 14.8572 12.6327 14.8572 13C14.8572 13.4925 14.6615 13.9649 14.3132 14.3132C13.9649 14.6615 13.4926 14.8571 13 14.8571V14.8571ZM18.5714 14.8571C18.2041 14.8571 17.8451 14.7482 17.5397 14.5442C17.2343 14.3401 16.9962 14.05 16.8557 13.7107C16.7151 13.3714 16.6783 12.9979 16.75 12.6377C16.8216 12.2774 16.9985 11.9465 17.2583 11.6868C17.518 11.4271 17.8489 11.2502 18.2091 11.1785C18.5694 11.1069 18.9428 11.1437 19.2821 11.2842C19.6215 11.4248 19.9115 11.6628 20.1156 11.9682C20.3197 12.2736 20.4286 12.6327 20.4286 13C20.4286 13.4925 20.2329 13.9649 19.8846 14.3132C19.5364 14.6615 19.064 14.8571 18.5714 14.8571Z" fill="#DB00FF"/>
</svg>
