<svg width="20" height="20" viewBox="0 0 20 20" fill="none" xmlns="http://www.w3.org/2000/svg">
<path d="M10.3571 20C7.61022 20 4.97585 18.9088 3.03352 16.9665C1.09119 15.0241 0 12.3898 0 9.64292C0 5.44651 2.4107 1.68403 6.14327 0.0594858C6.27482 0.00215347 6.42059 -0.014227 6.56158 0.0124791C6.70257 0.0391852 6.83225 0.107739 6.93372 0.209209C7.03519 0.310678 7.10374 0.440358 7.13045 0.58135C7.15716 0.722343 7.14077 0.86811 7.08344 0.999659C6.65487 1.98358 6.42854 3.24384 6.42854 4.64294C6.42854 9.56613 10.4339 13.5715 15.3571 13.5715C16.7562 13.5715 18.0164 13.3451 19.0003 12.9166C19.1319 12.8592 19.2777 12.8428 19.4186 12.8696C19.5596 12.8963 19.6893 12.9648 19.7908 13.0663C19.8923 13.1677 19.9608 13.2974 19.9875 13.4384C20.0142 13.5794 19.9978 13.7252 19.9405 13.8567C18.316 17.5893 14.5535 20 10.3571 20Z" fill="#9D9D9D"/>
</svg>
