<svg width="713" height="518" viewBox="0 0 713 518" fill="none" xmlns="http://www.w3.org/2000/svg">
<path fill-rule="evenodd" clip-rule="evenodd" d="M38.4456 45.2333C38.0496 45.8741 35.9181 46.3984 33.7167 46.3984C31.5115 46.3984 29.7061 46.9226 29.7061 47.5634C29.7061 48.2041 27.8697 48.7283 25.6295 48.7283C23.3854 48.7283 21.5489 49.2526 21.5489 49.8934C21.5489 50.5341 20.6327 51.0739 19.5107 51.0972C16.9948 51.1399 13.3957 53.765 13.3957 55.5553C13.3957 56.2892 12.4057 56.8833 11.1982 56.8833C9.14436 56.8833 5.23858 62.9181 5.23858 66.0907C5.23858 66.7975 4.84645 67.3761 4.36502 67.38C2.48977 67.3994 0.57959 73.9856 0.57959 80.4358C0.57959 86.8044 2.14035 91.8916 7.0556 101.553C7.97963 103.367 8.73671 105.759 8.73671 106.866C8.73671 107.976 9.78498 110.011 11.0662 111.386C12.3474 112.761 13.3957 114.302 13.3957 114.811C13.3957 115.32 15.5039 118.092 18.078 120.978C32.2064 136.791 31.9346 136.62 42.4989 136.29C47.3171 136.138 51.4326 135.513 51.6461 134.903C52.1353 133.513 76.3077 133.424 76.3077 134.814C76.3077 135.373 74.8673 136.127 73.1047 136.48C71.342 136.837 68.7407 138.216 67.3275 139.54C65.9104 140.868 63.6857 141.952 62.3773 141.952C61.0689 141.952 59.9973 142.476 59.9973 143.117C59.9973 143.757 59.0539 144.282 57.9008 144.282C50.2756 144.282 51.747 150.351 61.7445 160.126C66.551 164.825 70.484 169.193 70.484 169.834C70.484 170.475 71.4973 171.543 72.732 172.207C73.9705 172.871 75.3526 174.591 75.7991 176.036C76.2456 177.476 77.5928 180.051 78.7886 181.752C79.9883 183.453 80.9667 185.682 80.9667 186.703C80.9667 187.724 81.4909 188.563 82.1315 188.563C82.7721 188.563 83.2963 190.031 83.2963 191.825C83.2963 193.619 83.766 195.588 84.3406 196.194C84.9152 196.804 85.6025 200.939 85.8665 205.386C86.1538 210.213 86.9069 213.654 87.7339 213.929C88.5803 214.213 89.1239 216.861 89.1239 220.706C89.1239 224.177 89.648 227.016 90.2886 227.016C90.9292 227.016 91.4534 229.377 91.4534 232.262C91.4534 235.144 91.9775 237.505 92.6181 237.505C93.2588 237.505 93.7828 238.519 93.7828 239.757C93.7828 241.062 94.8739 242.355 96.3725 242.829C97.7935 243.283 101.237 246.188 104.025 249.291C110.136 256.091 122.735 263.865 144.022 273.981C159.816 281.488 168.16 287.437 170.971 293.2C173.79 298.982 174.842 297.805 187.382 274.793C189.3 271.271 192.193 266.288 193.804 263.725C195.415 261.162 198.537 255.916 200.742 252.071C202.943 248.227 205.673 243.505 206.802 241.582C210.732 234.899 222.251 214.749 225.12 209.537C226.708 206.656 230.082 200.8 232.617 196.528L237.23 188.765L231.72 179.632C220.787 161.516 204.011 137.315 195.093 126.803C188.819 119.401 186.986 116.26 186.986 112.897C186.986 111.572 186.462 110.489 185.821 110.489C185.181 110.489 184.657 109.44 184.657 108.159C184.657 106.877 184.109 105.829 183.438 105.829C181.857 105.829 176.5 100.47 176.5 98.8894C176.5 98.2175 176.084 97.67 175.579 97.67C175.071 97.67 172.058 95.3128 168.878 92.4314C165.702 89.5499 162.744 87.1889 162.309 87.1889C161.87 87.185 161.179 86.1326 160.772 84.8511C160.368 83.5696 159.285 82.5211 158.368 82.5211C157.452 82.5211 154.754 80.6843 152.378 78.4436C150.001 76.1991 147.377 74.3661 146.55 74.3661C145.723 74.3661 145.043 73.8419 145.043 73.2011C145.043 72.5565 144.286 72.0322 143.362 72.0322C142.438 72.0322 140.975 71.0226 140.109 69.7838C139.243 68.5489 137.115 67.1819 135.38 66.747C133.648 66.3121 132.231 65.4888 132.231 64.9141C132.231 64.3432 131.42 63.8772 130.434 63.8772C129.444 63.8772 127.51 62.8287 126.136 61.5472C124.761 60.2657 122.715 59.2172 121.593 59.2172C120.471 59.2172 119.229 58.693 118.833 58.0522C118.437 57.4076 116.635 56.8833 114.826 56.8833C113.021 56.8833 110.92 56.1339 110.155 55.2135C106.129 50.3632 99.2378 52.0447 98.0109 58.1765C97.0442 62.9996 94.4623 61.9239 94.0042 56.5028C93.8062 54.1495 93.15 52.2234 92.5482 52.2234C91.9464 52.2234 91.4534 51.4389 91.4534 50.4759C91.4534 49.2177 90.1644 48.7283 86.8604 48.7283C84.3368 48.7283 81.9452 48.2041 81.5491 47.5634C81.1531 46.9226 78.0083 46.3984 74.5606 46.3984C71.113 46.3984 67.9643 45.8741 67.5682 45.2333C67.1567 44.5615 60.9796 44.0684 53.005 44.0684C45.0342 44.0684 38.8572 44.5615 38.4456 45.2333ZM676.305 204.881C675.343 205.452 672.59 206.232 670.187 206.617C667.783 206.998 665.819 207.813 665.819 208.427C665.819 209.036 664.771 209.537 663.489 209.537C662.208 209.537 661.16 210.061 661.16 210.702C661.16 211.343 659.615 211.867 657.732 211.867C655.849 211.867 653.981 212.391 653.585 213.036C653.189 213.677 651.885 214.201 650.689 214.201C649.493 214.201 647.482 215.51 646.22 217.114C644.962 218.714 643.366 220.026 642.675 220.026C641.336 220.026 633.004 224.465 632.033 225.696C631.334 226.581 627.475 229.051 625.041 230.165C624.082 230.604 622.727 231.521 622.032 232.196C621.337 232.872 619.279 234.476 617.458 235.757C615.641 237.039 613.001 239.268 611.6 240.709C610.194 242.153 608.731 243.33 608.346 243.33C606.417 243.33 599.413 251.213 599.413 253.38C599.413 254.945 597.355 257.535 593.876 260.354C588.592 264.638 557.02 291.736 552.302 296.035C550.237 297.922 550.159 298.699 551.378 305.378C555.653 328.849 554.546 331.225 544.44 320.29C534.749 309.813 536.675 309.366 519.608 326.049C467.908 376.571 446.558 409.292 446.718 437.745C446.741 442.017 446.454 447.415 446.081 449.741C445.677 452.273 445.914 454.292 446.679 454.762C447.382 455.197 447.956 456.572 447.956 457.814C447.956 459.057 448.74 460.074 449.703 460.074C450.674 460.074 451.45 461.111 451.45 462.408C451.45 463.69 451.975 464.738 452.615 464.738C455.321 464.738 452.483 472.423 448.007 477.231C446.698 478.637 445.627 480.598 445.627 481.584C445.627 482.574 445.103 483.382 444.462 483.382C443.821 483.382 443.297 484.182 443.297 485.157C443.297 486.135 441.461 489.603 439.217 492.861C436.976 496.123 435.14 499.521 435.14 500.411C435.14 501.3 434.616 502.026 433.975 502.026C433.335 502.026 432.799 502.942 432.783 504.065C432.748 506.969 428.21 512.69 428.175 509.878C428.163 508.744 428.676 506.779 429.316 505.505C429.957 504.232 431.005 502.15 431.646 500.877C432.286 499.603 432.811 496.982 432.811 495.052C432.811 493.118 433.335 491.537 433.975 491.537C434.616 491.537 435.14 489.759 435.14 487.584C435.14 485.203 435.812 483.374 436.833 482.982C440.789 481.464 444.516 469.922 441.896 467.301C439.787 465.189 432.811 465.495 432.811 467.697C432.811 468.688 431.762 470.621 430.481 471.996C429.2 473.375 428.152 475.386 428.152 476.466C428.152 477.549 427.363 479.087 426.404 479.887C425.442 480.683 424.653 482.582 424.653 484.108C424.653 485.631 424.098 486.877 423.423 486.877C422.743 486.877 422.464 487.324 422.801 487.871C423.139 488.419 422.662 489.859 421.742 491.075C420.821 492.29 420.053 495.149 420.033 497.424C420.01 499.7 419.443 502.111 418.768 502.787C418.092 503.463 417.696 507.109 417.894 510.888L418.247 517.757L422.192 517.567C424.362 517.466 426.571 516.682 427.095 515.831C427.856 514.596 428.346 514.577 429.499 515.73C434.068 520.297 443.297 515.299 443.297 508.255C443.297 507.393 443.821 506.686 444.462 506.686C445.103 506.686 445.627 505.902 445.627 504.938C445.627 503.979 446.151 503.191 446.791 503.191C447.432 503.191 447.956 502.185 447.956 500.958C447.956 499.731 448.348 498.55 448.83 498.337C450.127 497.762 455.438 489.188 457.193 484.838C458.035 482.757 459.184 481.052 459.747 481.052C460.31 481.052 460.772 480.306 460.772 479.402C460.772 478.493 461.428 477.526 462.228 477.254C463.606 476.784 464.542 477.099 470.075 479.887C473.084 481.402 488.381 481.402 489.316 479.887C489.712 479.246 491.285 478.722 492.811 478.722C494.336 478.722 495.909 478.198 496.305 477.557C496.701 476.912 498.266 476.388 499.788 476.388C501.306 476.388 503.332 475.604 504.295 474.641C505.254 473.682 506.834 472.893 507.805 472.893C508.772 472.893 509.89 472.369 510.286 471.728C510.682 471.087 512.021 470.563 513.268 470.563C514.51 470.563 515.527 470.039 515.527 469.398C515.527 468.757 516.234 468.233 517.096 468.233C519.433 468.233 526.014 464.73 526.014 463.488C526.014 462.894 527.295 462.408 528.856 462.408C530.421 462.408 532.024 461.884 532.42 461.239C532.816 460.599 534.159 460.074 535.402 460.074C536.648 460.074 538.713 459.026 539.995 457.744C541.276 456.463 543.532 455.414 545.003 455.414C546.479 455.414 548.183 454.964 548.789 454.412C549.398 453.861 552.648 452.447 556.014 451.267C559.376 450.09 562.129 448.708 562.129 448.191C562.129 447.679 569.44 447.259 578.373 447.259C587.303 447.259 594.897 446.801 595.239 446.242C595.584 445.687 597.32 444.929 599.094 444.564C602.355 443.893 612.003 435.365 616.305 429.349C617.586 427.559 619.807 424.697 621.244 422.992C622.812 421.128 623.589 419.047 623.185 417.781C620.669 409.855 644.279 400.683 667.275 400.655C670.959 400.652 673.972 400.123 673.972 399.483C673.972 398.838 674.892 398.306 676.014 398.298C677.831 398.279 679.575 397.032 687.557 390.023C688.737 388.986 691.276 386.198 693.198 383.833C695.12 381.464 697.349 378.808 698.148 377.934C698.948 377.056 699.616 375.911 699.631 375.383C699.643 374.858 700.684 373.115 701.934 371.515C703.188 369.911 704.225 367.465 704.24 366.074C704.252 364.688 704.919 363.333 705.719 363.065C707.897 362.339 707.657 349.089 705.428 346.937C701.965 343.594 687.242 337.722 682.327 337.722H677.466L669.674 349.663C656.66 369.616 654.664 369.775 661.23 350.327C666.308 335.287 664.996 334.67 639.278 340.033C627.304 342.526 627.665 343.706 634.363 324.084C644.286 295.017 654.505 283.689 672.027 282.33C679.311 281.763 686.788 279.099 686.788 277.072C686.788 276.459 687.561 275.962 688.5 275.962C693.369 275.962 704.259 266.987 704.263 262.976C704.263 261.923 705.051 260.758 706.014 260.389C706.973 260.021 707.761 258.665 707.761 257.38C707.761 256.094 708.806 253.326 710.087 251.225C715.674 242.056 712.84 220.275 704.834 210.908C699.612 204.8 682.537 201.196 676.305 204.881ZM131.07 286.443C128.927 287.767 130.538 291.11 133.322 291.11C138.676 291.11 151.496 300.896 155.072 307.716C157.176 311.723 160.189 311.948 160.189 308.1C160.189 304.706 150.118 293.258 144.682 290.47C138.144 287.115 132.623 285.484 131.07 286.443ZM543.912 477.891C543.182 478.668 540.659 480.877 538.306 482.8C535.949 484.722 533.305 486.951 532.432 487.751C531.558 488.551 530.277 489.207 529.593 489.207C528.906 489.207 528.343 489.603 528.343 490.089C528.343 491.036 522.605 493.852 520.901 493.739C520.334 493.7 519.546 494.12 519.153 494.671C517.748 496.64 512.072 499.696 509.812 499.696C508.547 499.696 507.188 500.22 506.792 500.861C506.396 501.502 504.035 502.026 501.546 502.026C499.061 502.026 496.701 502.55 496.305 503.191C495.882 503.874 489.107 504.356 479.925 504.356H464.267V509.602V514.845H482.398C500.184 514.845 512.033 512.926 512.033 510.049C512.033 509.482 513.574 509.02 515.461 509.02C517.344 509.02 519.212 508.496 519.608 507.851C520.004 507.21 521.491 506.686 522.912 506.686C524.337 506.686 526.255 505.637 527.179 504.356C528.103 503.074 529.547 502.026 530.389 502.026C532.292 502.026 537.619 498.698 540.131 495.937C541.167 494.799 542.608 493.871 543.334 493.871C544.06 493.871 544.654 493.347 544.654 492.706C544.654 492.061 545.294 491.537 546.075 491.537C548.808 491.537 553.968 484.116 553.972 480.178C553.976 476.081 547.08 474.516 543.912 477.891Z" fill="#1552E0"/>
<path fill-rule="evenodd" clip-rule="evenodd" d="M375.722 0.854435C375.722 1.6078 373.133 2.11651 369.316 2.11651C365.791 2.11651 362.906 2.64077 362.906 3.28152C362.906 3.92227 361.858 4.4465 360.577 4.4465C359.295 4.4465 358.247 5.00182 358.247 5.6814C358.247 6.36099 357.82 6.64836 357.296 6.32604C356.772 6.00372 355.607 6.75709 354.706 8.00364C353.809 9.25407 352.641 10.2715 352.113 10.2715C350.727 10.2715 345.431 15.7703 345.431 17.211C345.431 17.8828 344.907 18.4304 344.266 18.4304C343.626 18.4304 343.101 19.9371 343.101 21.7778C343.101 23.6845 340.419 29.8202 336.862 36.053C330.359 47.4467 316.044 72.3 297.68 104.077C276.633 140.503 259.993 169.411 257.1 174.579C255.485 177.465 250.422 186.117 245.853 193.806C241.279 201.498 236.274 210.151 234.725 213.036C233.18 215.917 231.317 219.063 230.587 220.026C229.857 220.989 227.279 225.443 224.86 229.932C222.441 234.418 216.936 244.118 212.626 251.489C208.317 258.859 203.471 267.247 201.856 270.133C198.855 275.503 191.808 287.778 188.147 294.023C171.309 322.728 153.667 353.515 151.419 358.113C140.105 381.266 150.898 407.241 175.529 416.138C182.129 418.522 450.282 418.138 450.282 415.742C450.286 413.629 458.66 396.686 463.684 388.636C474.081 371.965 530.335 310.919 535.297 310.919C536.349 310.919 540.573 314.379 544.681 318.612C553.482 327.68 553.661 327.454 551.056 310.55L549.053 297.537L556.173 291.048C563.907 284 564.4 282.683 560.964 278.291C559.71 276.688 558.673 274.925 558.662 274.373C558.646 273.818 556.014 268.715 552.811 263.03C549.39 256.96 546.983 251.244 546.983 249.178C546.983 247.244 546.591 245.656 546.11 245.652C545.628 245.644 544.203 243.287 542.938 240.406C541.672 237.528 540.36 235.175 540.018 235.175C539.676 235.175 538.671 233.47 537.782 231.389C536.896 229.303 534.932 225.932 533.422 223.89C531.911 221.851 530.673 219.622 530.673 218.939C530.673 218.255 530.149 217.696 529.508 217.696C528.867 217.696 528.343 216.383 528.343 214.783C528.343 213.18 527.819 211.867 527.179 211.867C526.538 211.867 526.014 211.055 526.014 210.065C526.014 209.075 524.834 207.106 523.393 205.696C521.949 204.283 520.602 202.341 520.392 201.382C520.182 200.419 519.53 199.46 518.936 199.246C518.342 199.033 517.857 197.914 517.857 196.765C517.857 195.615 517.026 193.984 516.005 193.138C514.988 192.291 513.054 189.08 511.711 186.004C510.367 182.925 508.842 180.404 508.321 180.404C507.797 180.404 507.362 179.752 507.347 178.948C507.331 178.148 506.295 176.183 505.044 174.579C503.79 172.975 502.754 170.987 502.738 170.16C502.723 169.333 501.643 167.508 500.339 166.106C499.03 164.704 497.664 162.366 497.299 160.91C496.934 159.454 496.169 158.265 495.594 158.265C495.024 158.265 494.558 157.217 494.558 155.935C494.558 154.654 494.034 153.605 493.393 153.605C492.752 153.605 492.228 152.817 492.228 151.858C492.228 150.895 491.704 150.106 491.064 150.106C490.423 150.106 489.899 149.303 489.899 148.32C489.899 146.196 486.711 140.961 483.811 138.321C482.673 137.284 481.742 135.315 481.742 133.948C481.742 132.581 481.218 131.463 480.577 131.463C479.936 131.463 479.412 130.927 479.412 130.274C479.412 128.857 473.387 119.397 472.129 118.838C471.651 118.624 471.255 117.448 471.255 116.217C471.255 114.989 470.731 113.984 470.09 113.984C469.45 113.984 468.926 113.199 468.926 112.236C468.926 111.273 468.401 110.489 467.761 110.489C467.12 110.489 466.596 109.782 466.596 108.92C466.596 106.582 463.094 99.9998 461.852 99.9998C461.258 99.9998 460.772 98.9513 460.772 97.6698C460.772 96.3883 460.248 95.3398 459.608 95.3398C458.967 95.3398 458.443 94.5515 458.443 93.5923C458.443 92.6292 457.919 91.8448 457.274 91.8448C456.634 91.8448 456.109 91.006 456.109 89.9847C456.109 88.9634 455.139 86.7343 453.947 85.0334C451.672 81.7753 446.112 72.1019 443.973 67.671C443.282 66.2342 442.319 65.0576 441.837 65.0498C441.36 65.0459 440.964 64.2809 440.964 63.3489C440.964 62.413 439.655 60.3393 438.052 58.7394C436.452 57.1356 435.14 55.0075 435.14 54.0095C435.14 52.0911 433.238 48.2505 430.718 45.0817C429.887 44.0332 428.287 41.4119 427.165 39.2528C424.292 33.7268 421.858 29.5989 421.066 28.9193C420.693 28.597 419.649 26.632 418.744 24.5466C417.836 22.4652 416.438 20.7604 415.634 20.7604C414.827 20.7604 414.279 20.3682 414.415 19.8866C415.052 17.6459 409.523 10.2715 407.205 10.2715C406.491 10.2715 404.69 8.96282 403.203 7.359C401.72 5.75907 399.491 4.4465 398.249 4.4465C397.01 4.4465 395.496 3.97663 394.886 3.4019C394.281 2.82716 391.683 2.08543 389.121 1.75535C386.558 1.42138 382.493 0.800066 380.094 0.3729C377.256 -0.131934 375.722 0.0389352 375.722 0.854435ZM449.463 52.4562C447.436 54.9997 450.414 64.0945 454.343 67.3565C455.314 68.1643 456.109 69.8069 456.109 71.0107C456.109 72.2146 456.634 73.2009 457.274 73.2009C457.919 73.2009 458.443 73.9854 458.443 74.9484C458.443 75.9076 458.998 76.6959 459.674 76.6959C460.353 76.6959 460.644 77.1231 460.318 77.6473C459.996 78.1716 460.753 79.3366 461.999 80.2375C463.245 81.1346 464.267 82.5986 464.267 83.4918C464.267 84.3811 466.495 88.3304 469.217 92.2681C471.942 96.2058 474.912 100.87 475.821 102.629C476.733 104.388 477.91 105.829 478.445 105.829C478.977 105.829 479.412 106.652 479.412 107.658C479.412 108.667 480.068 110.221 480.868 111.114C484.324 114.97 485.236 116.287 485.236 117.432C485.236 118.1 485.76 118.644 486.401 118.644C487.041 118.644 487.565 119.665 487.565 120.908C487.565 122.15 488.09 123.494 488.734 123.89C489.375 124.286 489.899 125.389 489.899 126.337C489.899 127.288 490.431 128.698 491.083 129.474C495.715 134.965 496.911 136.693 497.594 138.884C498.017 140.251 498.689 141.629 499.085 141.951C499.947 142.65 502.513 147.07 504.843 151.858C505.778 153.78 507.428 156.401 508.515 157.683C509.603 158.964 511.21 161.85 512.087 164.09C512.965 166.335 514.421 168.925 515.325 169.849C516.23 170.77 517.48 172.999 518.109 174.801C518.738 176.602 519.724 178.074 520.303 178.074C520.881 178.074 521.355 179.123 521.355 180.404C521.355 181.686 521.879 182.738 522.52 182.738C523.16 182.738 523.684 183.227 523.684 183.829C523.684 186.245 530.238 195.425 532.377 196.007C540.468 198.213 539.055 181.888 530.506 174.443C529.318 173.406 528.343 171.733 528.343 170.723C528.343 169.717 527.819 168.568 527.179 168.172C526.538 167.776 526.014 166.673 526.014 165.721C526.014 164.77 524.702 162.576 523.102 160.848C521.498 159.12 520.19 156.883 520.19 155.873C520.19 154.867 519.138 152.918 517.857 151.543C516.575 150.165 515.527 148.526 515.527 147.893C515.527 146.464 511.416 139.334 507.145 133.358C505.371 130.872 504.202 128.383 504.551 127.824C504.897 127.261 504.625 126.803 503.946 126.803C503.266 126.803 502.711 126.239 502.711 125.548C502.711 124.857 500.626 121.381 498.079 117.82C495.528 114.259 493.727 110.893 494.069 110.333C494.414 109.778 494.138 109.324 493.463 109.324C492.783 109.324 492.228 108.535 492.228 107.576C492.228 106.613 491.832 105.829 491.347 105.829C490.862 105.829 489.755 104.217 488.882 102.252C488.012 100.283 486.051 97.4252 484.522 95.8951C482.992 94.3651 481.742 92.5555 481.742 91.872C481.742 90.6371 476.042 81.3054 474.606 80.1909C473.165 79.0725 468.926 70.7816 468.926 69.0846C468.926 68.1448 468.491 67.372 467.959 67.372C467.427 67.372 466.266 65.9313 465.385 64.1683C464.503 62.4052 462.64 59.9083 461.25 58.6151C459.856 57.3258 458.52 55.2289 458.28 53.9551C457.752 51.1863 451.342 50.0951 449.463 52.4562ZM388.997 62.5606C390.852 63.6052 393.997 66.475 395.989 68.937L399.607 73.4145V186.14V298.865L396.268 303.242C386.12 316.554 368.066 315.012 360.464 300.186C358.01 295.401 356.985 86.4625 359.361 76.2028C362.518 62.5917 377.112 55.8774 388.997 62.5606ZM270.565 124.95C270.922 126.814 269.629 130.251 266.725 135.148C264.322 139.21 260.532 145.679 258.312 149.524C251.253 161.749 250.294 163.399 247.142 168.754C241.625 178.117 236.806 188.023 238.635 186.233C239.617 185.27 242.358 181.076 244.723 176.909C247.083 172.742 249.941 167.764 251.071 165.838C269.846 133.874 275.204 122.143 271.031 122.143C270.479 122.143 270.27 123.405 270.565 124.95ZM268.422 237.967C276.26 245.866 277.891 249.159 273.95 249.159C271.431 249.159 255.765 232.926 256.483 231.058C257.652 228.006 259.713 229.202 268.422 237.967ZM370.772 248.658C369.009 249.617 367.569 250.941 367.569 251.609C367.569 252.277 368.357 252.032 369.324 251.065C373.451 246.934 379.477 247.9 381.542 253.023C382.295 254.89 382.587 255.05 382.641 253.613C382.819 248.829 375.831 245.912 370.772 248.658ZM366.827 266.055C366.831 272.463 367.025 274.936 367.262 271.55C367.499 268.164 367.495 262.921 367.258 259.896C367.018 256.875 366.824 259.648 366.827 266.055ZM381.453 277.095C381.185 278.684 379.655 280.641 378.052 281.449C376.239 282.365 375.839 282.924 377 282.936C379.636 282.959 383.01 278.858 382.431 276.338C382.047 274.676 381.833 274.839 381.453 277.095ZM171.379 300.722C170.458 302.162 166.242 309.374 162.018 316.744C157.79 324.115 153.837 330.934 153.236 331.893C152.269 333.439 139.433 355.756 133.132 366.851C131.859 369.095 130.406 371.456 129.906 372.097C126.439 376.532 119.085 392.683 118.095 398.038C116.721 405.478 119.046 426.382 120.739 421.804C121.236 420.456 121.088 417.757 120.409 415.804C116.391 404.282 119.473 393.626 134.06 368.602C142.256 354.537 152.055 337.454 160.465 322.573C161.731 320.329 163.155 317.967 163.629 317.327C165.632 314.62 174.279 298.1 173.696 298.1C173.347 298.1 172.303 299.281 171.379 300.722ZM276.482 353.539C317.78 395.296 319.76 397.483 317.555 398.846C315.924 399.855 229.554 313.902 230.559 312.274C232.376 309.331 235.758 312.364 276.482 353.539ZM390.138 339.198C399.91 344.832 403.187 360.152 396.54 369.142C382.295 388.411 351.041 372.047 359.49 349.741C363.923 338.04 379.088 332.821 390.138 339.198ZM314.433 353.908C325.704 365.216 328.29 369.185 324.392 369.185C322.947 369.185 298.829 345.306 298.829 343.873C298.829 342.631 300.029 341.217 301.085 341.217C301.469 341.217 307.476 346.929 314.433 353.908ZM387.948 349.318C390.623 352.719 391.027 354.148 390.538 358.509C390.177 361.702 390.344 363.057 390.977 362.059C393.205 358.537 392.103 352.976 388.406 349.1L384.78 345.294L387.948 349.318ZM385.184 351.119C386.221 352.401 387.358 354.238 387.711 355.201C388.259 356.684 388.368 356.665 388.445 355.088C388.496 354.067 387.358 352.23 385.918 351.011C383.316 348.809 383.313 348.809 385.184 351.119ZM387.055 359.783C386.717 361.076 384.555 363.247 382.249 364.606C377.811 367.224 377.656 369.258 381.907 369.068C384.435 368.952 384.431 368.944 381.787 368.195C379.236 367.468 379.298 367.336 383.219 365.224C386.931 363.228 389.594 359.364 388.212 357.977C387.913 357.682 387.393 358.494 387.055 359.783ZM192.492 372.94C201.46 381.848 202.703 384.334 198.195 384.334C194.635 384.334 179.726 368.917 180.735 366.28C181.908 363.228 183.791 364.296 192.492 372.94ZM138.832 400.259C137.127 401.96 137.985 414.628 139.802 414.628C141.177 414.628 141.549 413.012 141.549 407.055C141.549 400.069 140.827 398.263 138.832 400.259ZM149.116 405.482C147.99 408.418 149.027 431.528 150.289 431.528C151.861 431.528 152.482 406.453 150.949 404.919C150.168 404.139 149.563 404.325 149.116 405.482ZM395.973 431.47C394.525 435.244 396.773 435.605 421.811 435.605H446.791V432.693V429.776H421.707C400.85 429.776 396.513 430.064 395.973 431.47Z" fill="white"/>
<path fill-rule="evenodd" clip-rule="evenodd" d="M370.481 63.9045C360.336 69.0383 361.206 58.4484 360.81 181.569C360.619 241.497 360.775 292.707 361.155 295.367C362.999 308.197 382.132 314.721 391.854 305.84C398.14 300.097 397.86 305.708 397.86 185.488V73.9273L395.236 70.0479C389.944 62.223 379.119 59.5357 370.481 63.9045ZM378.506 246.778C390.014 251.155 386.989 284.117 375.082 284.117C361.303 284.117 361.004 247.011 374.775 245.738C375.214 245.695 376.891 246.165 378.506 246.778ZM371.506 339.505C363.795 342.887 358.985 353.244 361.108 361.884C364.933 377.445 387.055 381.149 395.41 367.624C405.225 351.741 388.492 332.053 371.506 339.505ZM389.583 348.832C397.088 357.38 390.584 371.647 379.888 370.109C376.126 369.569 376.204 365.935 380.008 364.311C388.437 360.712 389.932 350.537 382.035 350.537C379.985 350.537 376.72 347.093 377.528 345.784C379.236 343.023 385.98 344.728 389.583 348.832ZM132.231 440.126C132.231 441.263 136.758 445.504 137.247 444.825C137.434 444.56 136.385 443.182 134.91 441.764C133.435 440.347 132.231 439.609 132.231 440.126ZM428.614 507.16C427.41 510.301 428.804 512.154 430.287 509.377C431.188 507.696 431.25 506.581 430.473 506.103C429.829 505.704 428.99 506.177 428.614 507.16Z" fill="#1552E0"/>
<path fill-rule="evenodd" clip-rule="evenodd" d="M341.937 18.2906C341.937 18.8537 339.712 21.607 336.99 24.4068C334.269 27.2106 332.172 29.894 332.328 30.3755C332.487 30.8571 331.959 31.2493 331.151 31.2493C330.347 31.2493 328.045 32.9541 326.042 35.0355C324.035 37.117 321.026 40.0567 319.352 41.5673C317.675 43.0779 316.305 45.074 316.305 46.006C316.305 46.938 315.78 47.3768 315.14 46.9807C314.499 46.5846 313.975 47.0777 313.975 48.0758C313.975 49.0738 313.451 49.8932 312.81 49.8932C312.17 49.8932 311.646 50.9106 311.646 52.1533C311.646 53.3998 311.137 54.7318 310.512 55.1163C309.887 55.5046 308.551 57.5627 307.542 59.6908C306.532 61.8189 304.552 64.8013 303.143 66.3158C301.73 67.8264 300.709 69.2089 300.868 69.3836C301.648 70.2379 301.035 73.2592 300.188 72.7349C299.656 72.4048 299.218 72.7699 299.218 73.5465C299.218 75.2513 293.592 84.35 291.887 85.4062C291.22 85.8179 290.676 87.2042 290.676 88.4857C290.676 89.7672 290.152 90.4934 289.511 90.0973C288.855 89.6896 288.347 90.6255 288.347 92.2332C288.347 93.8059 287.527 95.4058 286.522 95.7903C285.52 96.1747 284.969 96.9203 285.295 97.4485C285.621 97.9766 284.608 99.794 283.039 101.487C281.471 103.176 280.189 105.631 280.189 106.943C280.189 108.252 279.665 109.324 279.025 109.324C278.384 109.324 277.86 110.182 277.86 111.23C277.86 112.275 276.548 114.349 274.948 115.836C272.661 117.952 272.036 119.677 272.036 123.836C272.036 128.966 268.103 136.841 251.071 165.838C249.941 167.764 247.076 172.742 244.703 176.909C242.331 181.076 239.742 185.27 238.95 186.233C237.49 188.004 230.4 199.949 225.12 209.537C222.251 214.748 210.732 234.899 206.802 241.582C205.673 243.505 202.943 248.227 200.742 252.071C198.537 255.916 195.415 261.162 193.804 263.725C192.193 266.288 189.285 271.27 187.343 274.793C182.11 284.291 163.268 317.866 160.531 322.573C159.226 324.814 154.878 332.417 150.863 339.469C146.849 346.518 139.29 359.628 134.06 368.602C119.008 394.423 118.565 396.096 120.619 419.101C120.817 421.291 120.335 423.38 119.524 423.885C118.41 424.573 118.499 425.202 119.912 426.611C120.918 427.621 121.745 428.953 121.745 429.571C121.745 430.188 122.529 430.996 123.492 431.365C124.455 431.734 125.239 433.101 125.239 434.401C125.239 435.994 126.004 436.77 127.568 436.77C128.85 436.77 129.898 437.295 129.898 437.935C129.898 438.576 130.632 439.1 131.521 439.1C132.414 439.1 133.439 439.865 133.796 440.797C134.724 443.213 143.153 447.259 147.26 447.259C149.171 447.259 151.054 447.776 151.442 448.405C151.9 449.15 203.782 449.562 298.697 449.578L445.242 449.605L446.314 446.976C446.904 445.527 447.219 442.389 447.017 439.997L446.652 435.648L421.38 435.337C396.994 435.034 396.113 434.941 396.113 432.693C396.113 430.44 396.994 430.351 421.412 430.048L446.714 429.734L447.995 424.973C450.48 415.746 463.335 416.488 315.978 417.35C204.306 418.002 183.135 417.87 177.94 416.476C151.974 409.513 139.604 382.291 151.419 358.113C153.667 353.515 171.309 322.728 188.147 294.023C191.808 287.778 198.855 275.503 201.856 270.133C203.471 267.247 208.317 258.859 212.626 251.489C216.936 244.118 222.441 234.418 224.86 229.932C227.279 225.443 229.857 220.989 230.587 220.026C231.317 219.063 233.18 215.917 234.725 213.036C236.275 210.151 241.279 201.498 245.853 193.806C250.422 186.117 255.485 177.465 257.1 174.579C259.993 169.411 276.633 140.503 297.68 104.077C316.044 72.3 330.359 47.4467 336.862 36.053C340.302 30.0299 343.102 23.6651 343.102 21.8749C343.102 20.0886 343.758 18.3605 344.557 18.0382C345.427 17.6848 345.194 17.413 343.975 17.3586C342.853 17.3081 341.937 17.7275 341.937 18.2906ZM374.701 60.4286C367.301 62.0907 361.175 68.3895 359.361 76.2028C356.985 86.4625 358.01 295.401 360.464 300.186C368.066 315.012 386.12 316.554 396.268 303.242L399.607 298.865V186.14V73.4145L395.989 68.937C389.994 61.5238 382.746 58.6229 374.701 60.4286ZM387.878 63.8576C390.484 65.1314 393.795 67.9157 395.236 70.0477L397.86 73.9271V185.487C397.86 305.708 398.14 300.096 391.854 305.84C382.132 314.721 362.999 308.197 361.155 295.366C359.004 280.404 361.151 72.6262 363.489 69.438C368.843 62.1412 379.415 59.7258 387.878 63.8576ZM471.329 74.9484C471.329 75.5892 472.101 77.1309 473.041 78.3735C473.981 79.6201 474.753 80.1133 474.753 79.4725C474.753 78.8318 473.981 77.2862 473.041 76.0435C472.101 74.8009 471.329 74.3077 471.329 74.9484ZM481.742 114.36C481.742 115.296 482.53 116.368 483.489 116.737C484.452 117.106 485.236 117.125 485.236 116.776C485.236 116.43 484.452 115.362 483.489 114.399C481.975 112.885 481.742 112.881 481.742 114.36ZM520.279 156.044C520.229 157.069 521.367 158.902 522.811 160.125C525.408 162.323 525.416 162.323 523.545 160.013C522.508 158.731 521.367 156.895 521.013 155.935C520.47 154.452 520.357 154.467 520.279 156.044ZM544.654 243.998C544.654 244.868 547.787 247.994 548.657 247.994C549.029 247.994 548.68 246.945 547.88 245.664C546.513 243.473 544.654 242.514 544.654 243.998ZM371.607 246.77C366.727 248.751 365.876 251.236 365.667 264.168L365.469 276.544L366.272 264.304C367.181 250.448 367.34 250.017 372.278 247.974C375.45 246.658 376.239 246.759 379.003 248.817C383.056 251.842 384.477 276.742 380.824 280.777C377.834 284.081 371.762 283.627 368.819 279.88C367.491 278.19 366.404 277.305 366.404 277.915C366.404 280.602 371.32 284.116 375.082 284.116C382.319 284.116 385.044 279.138 385.044 265.907C385.044 249.636 380.498 243.167 371.607 246.77ZM369.316 338.736C350.253 350.576 357.071 377.34 379.154 377.34C395.818 377.34 405.381 361.546 397.499 347.042C392.246 337.372 378.18 333.229 369.316 338.736ZM387.172 339.539C401.11 346.494 401.886 367.033 388.469 373.88C377.508 379.476 363.974 373.542 361.109 361.884C357.315 346.448 373.389 332.666 387.172 339.539ZM377.528 345.784C376.763 347.026 379.939 350.537 381.829 350.537C382.536 350.537 384.202 351.457 385.533 352.576C387.952 354.614 387.952 354.614 385.735 351.993C384.516 350.552 382.878 349.372 382.093 349.372C379.783 349.372 377.644 346.23 379.461 345.5C380.494 345.085 380.529 344.867 379.578 344.805C378.817 344.755 377.893 345.193 377.528 345.784ZM384.59 345.854C395.077 350.09 393.877 366.544 382.92 368.734C378.261 369.666 377.194 367.356 381.305 365.232C383.134 364.284 385.37 362.56 386.275 361.395C387.816 359.406 387.774 359.391 385.607 361.092C384.334 362.09 381.818 363.538 380.009 364.311C373.28 367.181 378.44 371.915 385.409 369.266C395.434 365.453 394.261 344.394 384.05 344.786C382.641 344.84 382.785 345.124 384.59 345.854ZM141.549 407.055C141.549 413.012 141.177 414.628 139.802 414.628C137.985 414.628 137.127 401.96 138.832 400.259C140.827 398.263 141.549 400.069 141.549 407.055ZM151.784 418.806C151.353 435.295 149.237 435.695 148.79 419.369C148.433 406.515 148.969 402.939 150.949 404.919C151.632 405.603 151.978 411.389 151.784 418.806Z" fill="white" fill-opacity="0.88"/>
<path fill-rule="evenodd" clip-rule="evenodd" d="M214.948 98.7958C214.948 99.4559 214.556 99.9375 214.074 99.8637C210.86 99.355 207.956 100.252 207.956 101.747C207.956 102.904 206.799 103.495 204.531 103.495C202.648 103.495 200.781 104.019 200.385 104.664C199.989 105.304 198.517 105.829 197.112 105.829C195.706 105.832 192.787 107.351 190.616 109.203C185.534 113.549 186.101 116.077 194.347 125.87C204.325 137.722 224.382 166.952 235.463 185.782C236.612 187.74 237.156 187.208 240.402 180.987C242.409 177.142 245.441 171.635 247.142 168.754C250.294 163.399 251.253 161.749 258.312 149.524C260.532 145.679 264.318 139.214 266.721 135.155C271.656 126.83 271.757 121.502 267.051 118.244C265.626 117.257 262.687 114.846 260.517 112.885C258.347 110.927 255.858 109.324 254.984 109.324C254.111 109.324 253.525 108.737 253.684 108.023C253.847 107.304 252.989 106.555 251.785 106.353C250.582 106.155 249.032 105.429 248.349 104.741C247.662 104.058 245.429 103.495 243.383 103.495C241.042 103.495 239.396 102.803 238.946 101.627C238.55 100.602 237.486 100.042 236.577 100.392C235.669 100.741 234.388 100.384 233.735 99.5958C232.237 97.79 214.948 97.056 214.948 98.7958ZM256.483 231.058C255.765 232.926 271.431 249.158 273.95 249.158C277.891 249.158 276.26 245.865 268.422 237.967C259.713 229.202 257.652 228.006 256.483 231.058ZM92.2416 243.873C91.2593 244.856 89.3219 245.663 87.932 245.663C86.5459 245.663 84.0805 246.712 82.4499 247.993C80.8231 249.275 78.7732 250.323 77.8996 250.323C77.0222 250.323 76.3078 251.092 76.3078 252.036C76.3078 252.976 75.6167 253.481 74.7742 253.158C73.9317 252.836 71.8079 253.9 70.0569 255.523C68.302 257.15 65.8444 258.478 64.5981 258.478C63.348 258.478 62.3269 258.968 62.3269 259.566C62.3269 260.16 61.1466 260.816 59.7062 261.022C58.2658 261.224 56.5652 262.571 55.9363 264.016C55.3034 265.457 54.0921 266.637 53.2457 266.637C52.3954 266.637 52.0266 267.162 52.4226 267.802C52.8186 268.443 52.0693 268.967 50.757 268.967C49.4409 268.967 47.7132 270.016 46.9095 271.297C46.1097 272.579 44.9954 273.627 44.4324 273.627C41.967 273.627 25.1558 293.168 22.6283 298.974C21.7237 301.055 20.5861 302.76 20.1008 302.76C19.6155 302.76 19.2195 303.583 19.2195 304.593C19.2195 305.599 18.4352 307.21 17.4724 308.17C16.5134 309.133 15.7252 311.195 15.7252 312.748C15.7252 314.305 15.2554 315.579 14.6847 315.579C14.1101 315.579 13.388 317.544 13.0774 319.948C12.2465 326.371 11.3225 329.598 9.77723 331.458C9.02014 332.371 8.74062 333.45 9.15217 333.866C9.56371 334.277 9.90146 333.912 9.90146 333.058C9.90146 332.204 10.2354 331.842 10.6469 332.254C11.0623 332.666 10.8294 333.687 10.1344 334.522C9.44335 335.357 8.77166 339.698 8.64742 344.164C8.52318 348.63 7.83599 353.018 7.12549 353.915C5.3473 356.156 5.53754 378.101 7.35067 379.918C8.11164 380.679 8.7639 383.165 8.80273 385.44C8.87261 389.677 13.6015 401.214 14.7857 400.03C15.1506 399.669 15.7796 400.706 16.1911 402.34C16.8317 404.9 18.2683 406.026 19.6077 405.016C19.8174 404.857 21.8479 406.69 24.1114 409.094C26.8447 411.994 29.2674 413.462 31.2979 413.462C32.9868 413.462 34.3651 413.987 34.3651 414.627C34.3651 415.272 36.0773 415.796 38.1661 415.796C40.8023 415.796 42.6038 416.639 44.0325 418.546C45.8379 420.949 47.1618 421.322 54.5036 421.505C59.1277 421.617 63.0723 422.18 63.2742 422.755C63.4722 423.33 76.2495 423.85 91.6631 423.912L119.691 424.025L118.677 417.287C116.158 400.519 118.34 390.989 128.442 374.641C129.952 372.198 132.15 368.524 133.318 366.486C134.491 364.443 139.204 356.218 143.793 348.207C148.386 340.195 152.634 332.856 153.236 331.893C153.841 330.934 158.085 323.59 162.67 315.579C167.251 307.568 171.728 300.17 172.617 299.141C173.995 297.541 173.972 297.055 172.454 295.793C171.476 294.982 170.676 293.661 170.676 292.861C170.676 289.281 159.417 281.297 144.088 274.016C122.735 263.869 110.144 256.094 104.025 249.29C98.1934 242.801 94.8506 241.264 92.2416 243.873ZM371.646 249.384C362.735 254.44 366.967 285.021 376.196 282.264C381.515 280.676 382.132 278.924 382.132 265.329C382.132 249.718 379.123 245.143 371.646 249.384ZM546.983 250.316C546.983 251.624 549.604 257.345 552.811 263.03C556.014 268.715 558.646 273.818 558.662 274.373C558.673 274.924 559.71 276.687 560.964 278.291C564.427 282.718 563.88 284.194 556.305 290.916C550.839 295.766 549.348 297.801 549.472 300.232L549.631 303.343L550.167 300.43C550.462 298.83 551.569 296.722 552.628 295.751C556.829 291.898 588.677 264.568 593.876 260.354C603.722 252.374 602.22 250.323 586.527 250.323C579.123 250.323 573.92 249.873 574.297 249.267C574.669 248.661 568.989 248.153 560.964 248.071C547.62 247.939 546.983 248.044 546.983 250.316ZM666.984 282.567C651.1 287.972 643.304 297.894 634.363 324.083C627.665 343.706 627.304 342.525 639.278 340.032C664.996 334.669 666.308 335.287 661.23 350.327C654.676 369.728 656.225 369.689 669.263 350.117C678.988 335.516 680.646 334.937 694.945 341.217C699.325 343.139 703.215 344.712 703.588 344.712C704.776 344.712 704.314 332.064 703.099 331.31C702.458 330.914 701.934 329.341 701.934 327.815C701.934 326.289 701.41 324.716 700.769 324.32C700.128 323.924 699.604 322.056 699.604 320.173C699.604 318.286 699.146 316.744 698.587 316.744C698.024 316.744 697.275 315.303 696.918 313.54C696.56 311.777 695.314 309.257 694.149 307.94C691.599 305.055 689.479 301.828 688.073 298.683C686.885 296.03 674.151 282.951 672.753 282.951C672.248 282.951 671.138 282.73 670.284 282.462C669.43 282.19 667.946 282.237 666.984 282.567ZM144.682 290.469C150.118 293.258 160.189 304.706 160.189 308.1C160.189 311.948 157.176 311.723 155.072 307.715C151.496 300.896 138.676 291.11 133.322 291.11C130.539 291.11 128.927 287.767 131.07 286.442C132.623 285.483 138.144 287.114 144.682 290.469ZM550.664 306.259C550.637 307.859 551.048 311.268 551.576 313.831L552.543 318.491L552.559 313.831C552.57 311.268 552.159 307.859 551.646 306.259L550.71 303.343L550.664 306.259ZM230.559 312.274C229.554 313.901 315.924 399.855 317.555 398.845C319.76 397.482 317.78 395.296 276.482 353.539C235.758 312.364 232.376 309.331 230.559 312.274ZM523.075 321.695C514.988 330.025 514.467 330.728 520.773 324.786C537.168 309.331 534.734 309.793 544.44 320.289C552.213 328.701 554.088 329.155 553.82 322.573C553.708 319.851 553.65 319.882 552.962 323.027L552.228 326.394L544.72 318.655C535.239 308.884 535.557 308.838 523.075 321.695ZM502.102 342.673L492.811 352.284L502.42 342.991C511.35 334.359 512.565 333.058 511.715 333.058C511.54 333.058 507.215 337.384 502.102 342.673ZM299.606 341.993C299.179 342.421 298.829 343.267 298.829 343.873C298.829 345.306 322.947 369.184 324.392 369.184C328.29 369.184 325.704 365.216 314.433 353.907C301.683 341.116 301.019 340.58 299.606 341.993ZM380.801 347.403C391.074 353.989 391.714 360.078 382.715 365.534C378.723 367.957 378.7 368.008 381.709 368.012C389.963 368.023 393.854 356.595 387.975 349.609C385.84 347.069 383.844 345.9 381.736 345.947C378.898 346.009 378.817 346.129 380.801 347.403ZM180.735 366.28C179.726 368.917 194.635 384.333 198.195 384.333C202.703 384.333 201.46 381.848 192.492 372.94C183.791 364.295 181.908 363.227 180.735 366.28ZM469.865 379.378C467.644 381.968 466.289 384.333 467.031 384.333C467.345 384.333 468.724 382.757 470.09 380.834C472.808 377.021 472.668 376.116 469.865 379.378ZM648.895 402.329C635.528 404.41 621.434 412.499 622.979 417.202C623.709 419.419 629.083 419.691 630.818 417.602C631.754 416.472 634.231 415.796 637.418 415.796C640.222 415.796 642.516 415.272 642.516 414.627C642.516 413.987 644.092 413.462 646.014 413.462C647.936 413.462 649.508 412.938 649.508 412.297C649.508 411.657 650.557 411.132 651.838 411.132C653.119 411.132 654.167 410.608 654.167 409.967C654.167 409.326 654.932 408.802 655.868 408.802C657.945 408.802 668.148 402.756 668.148 401.529C668.148 400.282 659.851 400.628 648.895 402.329ZM94.0741 448.715C94.2333 449.515 93.7091 450.039 92.9093 449.88C92.0047 449.698 91.4534 450.905 91.4534 453.068C91.4534 456.571 110.089 477.172 111.751 475.506C112.12 475.137 112.423 475.72 112.423 476.799C112.423 481.172 120.859 476.834 121.508 472.128C121.853 469.619 116.992 463.573 114.632 463.573C113.984 463.573 113.797 463.014 114.22 462.326C114.644 461.643 113.894 460.796 112.555 460.447C111.215 460.097 110.295 459.476 110.513 459.068C111.052 458.051 103.357 450.89 102.569 451.678C102.223 452.024 101.94 451.488 101.94 450.49C101.94 449.488 101.109 448.354 100.096 447.966C96.9937 446.773 93.7674 447.177 94.0741 448.715ZM120.048 458.532C119.489 460.765 119.792 461.942 121.112 462.684C122.129 463.251 122.696 464.14 122.374 464.66C121.473 466.12 153.973 498.589 156.897 499.152C160.057 499.762 163.687 496.189 163.687 492.465C163.687 489.77 147 472.493 145.676 473.817C145.327 474.163 145.044 473.809 145.044 473.033C145.044 464.843 121.842 451.383 120.048 458.532Z" fill="#9CCEFD"/>
</svg>
