<svg width="19" height="20" viewBox="0 0 19 20" fill="none" xmlns="http://www.w3.org/2000/svg">
<path d="M13.4452 1.58875C14.4931 1.59189 15.4972 2.01143 16.2381 2.75574C16.9791 3.50005 17.3968 4.50864 17.3999 5.56125V13.5054C17.3968 14.558 16.9791 15.5666 16.2381 16.3109C15.4972 17.0552 14.4931 17.4748 13.4452 17.4779H5.53644C4.48853 17.4748 3.48443 17.0552 2.74344 16.3109C2.00246 15.5666 1.58479 14.558 1.58166 13.5054V5.56125C1.58479 4.50864 2.00246 3.50005 2.74344 2.75574C3.48443 2.01143 4.48853 1.59189 5.53644 1.58875H13.4452ZM13.4452 0H5.53644C2.49133 0 0 2.5025 0 5.56125V13.5054C0 16.5642 2.49133 19.0667 5.53644 19.0667H13.4452C16.4903 19.0667 18.9816 16.5642 18.9816 13.5054V5.56125C18.9816 2.5025 16.4903 0 13.4452 0Z" fill="#ffffff"/>
<path d="M14.6315 5.56105C14.3968 5.56105 14.1675 5.49116 13.9724 5.36022C13.7773 5.22928 13.6252 5.04317 13.5354 4.82542C13.4456 4.60767 13.4221 4.36807 13.4679 4.13691C13.5137 3.90575 13.6267 3.69342 13.7926 3.52676C13.9585 3.36011 14.1699 3.24661 14.4 3.20063C14.6301 3.15465 14.8687 3.17825 15.0855 3.26844C15.3022 3.35864 15.4875 3.51138 15.6179 3.70734C15.7482 3.90331 15.8178 4.13371 15.8178 4.36939C15.8181 4.52598 15.7877 4.68109 15.7282 4.82582C15.6687 4.97055 15.5813 5.10205 15.4711 5.21278C15.3609 5.3235 15.2299 5.41126 15.0859 5.47103C14.9418 5.5308 14.7874 5.56139 14.6315 5.56105ZM9.49076 6.35521C10.1165 6.35521 10.7282 6.54159 11.2484 6.89078C11.7687 7.23997 12.1742 7.73629 12.4137 8.31698C12.6531 8.89767 12.7158 9.53663 12.5937 10.1531C12.4716 10.7695 12.1703 11.3358 11.7279 11.7802C11.2854 12.2247 10.7217 12.5273 10.108 12.6499C9.49427 12.7726 8.85815 12.7096 8.28005 12.4691C7.70195 12.2286 7.20784 11.8213 6.86021 11.2987C6.51257 10.7761 6.32702 10.1616 6.32702 9.53311C6.32792 8.69055 6.66153 7.88277 7.25465 7.28699C7.84777 6.69121 8.65196 6.35611 9.49076 6.35521ZM9.49076 4.76647C8.55221 4.76647 7.63474 5.04603 6.85436 5.56979C6.07398 6.09356 5.46575 6.83801 5.10659 7.709C4.74742 8.57999 4.65344 9.5384 4.83654 10.463C5.01965 11.3877 5.4716 12.237 6.13526 12.9036C6.79891 13.5703 7.64446 14.0242 8.56498 14.2082C9.4855 14.3921 10.4396 14.2977 11.3067 13.9369C12.1739 13.5761 12.915 12.9652 13.4364 12.1813C13.9578 11.3974 14.2362 10.4759 14.2362 9.53311C14.2362 8.26892 13.7362 7.05651 12.8463 6.16259C11.9563 5.26867 10.7493 4.76647 9.49076 4.76647Z" fill="#ffffff"/>
</svg>
