<svg width="31" height="31" viewBox="0 0 31 31" fill="none" xmlns="http://www.w3.org/2000/svg">
<path d="M21.3541 2.52755C23.0184 2.53255 24.6131 3.2 25.79 4.38413C26.9669 5.56826 27.6302 7.17284 27.6352 8.84745V21.4859C27.6302 23.1605 26.9669 24.7651 25.79 25.9492C24.6131 27.1333 23.0184 27.8008 21.3541 27.8058H8.79317C7.12884 27.8008 5.5341 27.1333 4.35723 25.9492C3.18037 24.7651 2.51702 23.1605 2.51205 21.4859V8.84745C2.51702 7.17284 3.18037 5.56826 4.35723 4.38413C5.5341 3.2 7.12884 2.53255 8.79317 2.52755H21.3541V2.52755ZM21.3541 0H8.79317C3.95682 0 0 3.98125 0 8.84745V21.4859C0 26.3521 3.95682 30.3333 8.79317 30.3333H21.3541C26.1904 30.3333 30.1472 26.3521 30.1472 21.4859V8.84745C30.1472 3.98125 26.1904 0 21.3541 0V0Z" fill="#161C22"/>
<path d="M23.2383 8.84731C22.8656 8.84731 22.5013 8.73612 22.1915 8.52781C21.8816 8.31949 21.6401 8.0234 21.4975 7.67699C21.3549 7.33057 21.3176 6.94938 21.3903 6.58163C21.463 6.21388 21.6424 5.87607 21.9059 5.61094C22.1694 5.3458 22.5052 5.16524 22.8707 5.09209C23.2362 5.01894 23.615 5.05649 23.9593 5.19998C24.3036 5.34347 24.5979 5.58646 24.8049 5.89822C25.012 6.20999 25.1225 6.57653 25.1225 6.95149C25.123 7.2006 25.0746 7.44737 24.9801 7.67762C24.8856 7.90787 24.7469 8.11708 24.5718 8.29323C24.3967 8.46938 24.1888 8.609 23.9599 8.70409C23.7311 8.79917 23.4859 8.84784 23.2383 8.84731V8.84731ZM15.0736 10.1107C16.0674 10.1107 17.0389 10.4073 17.8652 10.9628C18.6915 11.5183 19.3356 12.3079 19.7159 13.2317C20.0962 14.1556 20.1957 15.1721 20.0018 16.1528C19.8079 17.1335 19.3294 18.0344 18.6267 18.7414C17.9239 19.4485 17.0286 19.93 16.0539 20.1251C15.0792 20.3202 14.0689 20.22 13.1507 19.8374C12.2326 19.4547 11.4478 18.8067 10.8957 17.9753C10.3435 17.1439 10.0489 16.1664 10.0489 15.1665C10.0503 13.8261 10.5801 12.5409 11.5221 11.5931C12.4642 10.6453 13.7414 10.1122 15.0736 10.1107V10.1107ZM15.0736 7.5832C13.583 7.5832 12.1258 8.02795 10.8864 8.86122C9.64697 9.69448 8.68096 10.8788 8.11051 12.2645C7.54007 13.6502 7.39082 15.1749 7.68163 16.6459C7.97243 18.1169 8.69025 19.4681 9.74429 20.5287C10.7983 21.5892 12.1413 22.3115 13.6033 22.6041C15.0653 22.8967 16.5807 22.7465 17.9578 22.1725C19.335 21.5986 20.5121 20.6266 21.3402 19.3795C22.1684 18.1325 22.6104 16.6663 22.6104 15.1665C22.6104 13.1553 21.8164 11.2264 20.4029 9.8043C18.9895 8.38215 17.0725 7.5832 15.0736 7.5832V7.5832Z" fill="#161C22"/>
</svg>
