<svg width="210" height="132" viewBox="0 0 210 132" fill="none" xmlns="http://www.w3.org/2000/svg">
<path d="M143.889 0.137207H157.79C179.329 2.82618 197.28 16.731 208.518 35.6455C208.773 36.0021 209.201 36.5621 209.201 36.5621C205.814 38.9515 202.696 41.1546 199.066 43.3489C188.741 21.5414 163.464 6.99405 139.452 13.0442C116.999 17.481 100.273 37.9441 97.6651 60.2895C100.462 60.2628 106.082 60.2628 108.905 60.2628C111.137 46.3877 119.365 33.0773 132.272 26.8658C143.808 21.7836 157.522 21.7836 169.138 26.6776C185.406 34.4218 194.522 53.4059 192.236 71.0456C168.412 71.0189 144.588 71.1532 120.736 70.965C122.538 83.6838 132.084 95.4615 145.287 96.9404C159.78 99.8445 173.571 90.8846 180.724 78.7036C183.763 80.1556 186.912 81.6671 189.924 83.146C180.378 106.083 150.235 113.881 129.261 102.291C118.155 95.5153 111.218 83.4687 109.066 70.8036C105.382 70.7769 101.672 70.7495 97.9878 70.7769C100.166 91.1593 114.417 109.659 134.101 115.952C158.893 125.256 188.23 111.219 198.69 87.3679C202.401 89.1695 206.165 90.9442 209.983 92.5307C206.701 98.1374 203.062 104.12 198.407 109.424C179.531 131.447 144.91 136.791 119.768 122.647C100.623 112.375 88.9528 92.1005 85.9949 70.9652C82.1766 71.0193 78.3314 71.0728 74.513 71.1266C74.8704 81.496 79.3094 92.0468 83.6555 101.7C55.8516 89.8687 28.4779 78.3671 0.243652 66.2864V66.152C28.6464 54.009 56.3356 42.0319 83.9513 29.0979C78.4139 38.6069 75.2738 49.1048 74.5937 60.2362C78.4927 60.2903 82.3917 60.2903 86.2907 60.3169C88.2537 29.7702 113.422 3.41822 143.889 0.137678M142.221 34.4221C130.417 37.4875 122.215 48.4854 120.279 60.2093C140.662 60.3975 161.017 60.3438 181.4 60.236C179.571 41.8703 159.7 29.017 142.221 34.4219M24.0142 65.8828C38.5077 71.8254 52.6786 78.521 67.2528 84.2485C64.1874 71.691 64.6176 58.4612 67.5217 45.9037C52.9166 52.6281 27.973 63.301 24.0142 65.8828L24.0142 65.8828Z" fill="#DEDEDE"/>
</svg>
