<svg width="43" height="43" viewBox="0 0 43 43" fill="none" xmlns="http://www.w3.org/2000/svg">
<path d="M21.5 0C9.64502 0 0 9.64502 0 21.5C0 33.355 9.64502 43 21.5 43C33.355 43 43 33.355 43 21.5C43 9.64502 33.355 0 21.5 0ZM29.7692 23.1538H23.1538V29.7692C23.1538 30.2079 22.9796 30.6285 22.6694 30.9387C22.3593 31.2488 21.9386 31.4231 21.5 31.4231C21.0614 31.4231 20.6407 31.2488 20.3306 30.9387C20.0204 30.6285 19.8462 30.2079 19.8462 29.7692V23.1538H13.2308C12.7921 23.1538 12.3715 22.9796 12.0613 22.6694C11.7512 22.3593 11.5769 21.9386 11.5769 21.5C11.5769 21.0614 11.7512 20.6407 12.0613 20.3306C12.3715 20.0204 12.7921 19.8462 13.2308 19.8462H19.8462V13.2308C19.8462 12.7921 20.0204 12.3715 20.3306 12.0613C20.6407 11.7512 21.0614 11.5769 21.5 11.5769C21.9386 11.5769 22.3593 11.7512 22.6694 12.0613C22.9796 12.3715 23.1538 12.7921 23.1538 13.2308V19.8462H29.7692C30.2079 19.8462 30.6285 20.0204 30.9387 20.3306C31.2488 20.6407 31.4231 21.0614 31.4231 21.5C31.4231 21.9386 31.2488 22.3593 30.9387 22.6694C30.6285 22.9796 30.2079 23.1538 29.7692 23.1538Z" fill="#00FFAA"/>
</svg>
