<svg width="19" height="22" viewBox="0 0 19 22" fill="none" xmlns="http://www.w3.org/2000/svg">
<path d="M15.5371 14.5904C14.634 14.5901 13.7668 14.9684 13.1214 15.6441L6.83026 11.8599C6.95953 11.2892 6.95953 10.6936 6.83026 10.1229L13.1194 6.33869C13.707 6.95013 14.4788 7.31787 15.2966 7.37608C16.1145 7.43429 16.925 7.17917 17.5831 6.6564C18.2412 6.13362 18.7038 5.37733 18.8883 4.5229C19.0727 3.66848 18.9669 2.77171 18.5897 1.99316C18.2125 1.2146 17.5886 0.605086 16.8297 0.273731C16.0709 -0.0576237 15.2265 -0.0891831 14.4478 0.184703C13.6692 0.458589 13.0071 1.02004 12.58 1.76853C12.153 2.51703 11.9889 3.4037 12.1172 4.26982L5.67958 8.14399C5.17392 7.69328 4.55868 7.40605 3.90593 7.31598C3.25318 7.2259 2.58996 7.3367 1.99395 7.63539C1.39795 7.93408 0.893843 8.4083 0.5407 9.00248C0.187558 9.59667 0 10.2862 0 10.9903C0 11.6945 0.187558 12.384 0.5407 12.9782C0.893843 13.5724 1.39795 14.0466 1.99395 14.3453C2.58996 14.644 3.25318 14.7548 3.90593 14.6647C4.55868 14.5746 5.17392 14.2874 5.67958 13.8367L12.1172 17.713C12.0059 18.4612 12.1117 19.228 12.4204 19.9099C12.729 20.5918 13.2257 21.1561 13.8434 21.5266C14.4611 21.8972 15.1701 22.0562 15.875 21.9823C16.5798 21.9084 17.2464 21.6051 17.7851 21.1132C18.3238 20.6213 18.7086 19.9646 18.8876 19.2316C19.0666 18.4985 19.0312 17.7244 18.7862 17.0135C18.5412 16.3026 18.0983 15.6892 17.5174 15.2559C16.9364 14.8227 16.2452 14.5904 15.5371 14.5904Z" fill="#161C22"/>
</svg>
