<svg width="34" height="28" viewBox="0 0 34 28" fill="none" xmlns="http://www.w3.org/2000/svg">
<path d="M33.9939 3.67947C32.7325 4.22617 31.398 4.58634 30.0323 4.74861C31.4675 3.91034 32.5468 2.57859 33.0678 1.00314C31.7109 1.79457 30.2289 2.34988 28.6852 2.64527C28.0352 1.96573 27.2534 1.42513 26.3874 1.05634C25.5214 0.687555 24.5893 0.498276 23.6476 0.500012C19.8353 0.500012 16.7502 3.53273 16.7502 7.27121C16.7475 7.79122 16.8072 8.30969 16.9281 8.81552C14.1944 8.68769 11.5175 7.99207 9.06876 6.77316C6.62 5.55426 4.45327 3.83891 2.7072 1.73686C2.09463 2.76695 1.77067 3.94224 1.76918 5.13993C1.76918 7.48784 2.99722 9.56322 4.85154 10.7791C3.75291 10.7531 2.67679 10.463 1.71454 9.93358V10.0174C1.71454 13.3017 4.09636 16.0339 7.24878 16.6559C6.65597 16.8135 6.04509 16.8934 5.43158 16.8935C4.99626 16.8942 4.56192 16.8521 4.13489 16.7677C5.01126 19.458 7.56192 21.4146 10.5833 21.4705C8.12822 23.3578 5.11397 24.3779 2.01436 24.3704C1.46418 24.3696 0.914498 24.3369 0.368103 24.2726C3.52135 26.281 7.18674 27.3434 10.928 27.3333C23.6329 27.3333 30.5739 17.0122 30.5739 8.06084C30.5739 7.76735 30.5661 7.47386 30.5521 7.18736C31.8993 6.23147 33.0648 5.04357 33.9939 3.67947V3.67947Z" fill="#161C22"/>
</svg>
