<svg width="22" height="18" viewBox="0 0 22 18" fill="none" xmlns="http://www.w3.org/2000/svg">
<path d="M21.6259 2.19872C20.8317 2.54236 19.9914 2.76875 19.1316 2.87075C20.0352 2.34383 20.7148 1.50674 21.0428 0.516452C20.1884 1.01393 19.2553 1.36298 18.2834 1.54865C17.8741 1.12151 17.3819 0.781707 16.8366 0.549897C16.2914 0.318087 15.7045 0.199112 15.1116 0.200203C12.7112 0.200203 10.7687 2.10648 10.7687 4.45639C10.767 4.78325 10.8046 5.10914 10.8808 5.4271C9.15953 5.34674 7.4741 4.90949 5.93229 4.14333C4.39048 3.37716 3.02625 2.29894 1.92686 0.977648C1.54117 1.62513 1.3372 2.36389 1.33626 3.11672C1.33626 4.59255 2.10947 5.89708 3.27701 6.66135C2.58527 6.645 1.90772 6.46268 1.30185 6.12987V6.18258C1.30185 8.24698 2.80152 9.96439 4.78638 10.3553C4.41313 10.4544 4.0285 10.5046 3.64222 10.5047C3.36812 10.5051 3.09465 10.4786 2.82578 10.4256C3.37757 12.1166 4.98354 13.3465 6.88591 13.3816C5.3401 14.568 3.44224 15.2092 1.49064 15.2045C1.14422 15.2039 0.798128 15.1834 0.454102 15.143C2.43948 16.4054 4.74732 17.0732 7.10292 17.0668C15.1023 17.0668 19.4725 10.5793 19.4725 4.95272C19.4725 4.76824 19.4677 4.58377 19.4589 4.40368C20.3071 3.80283 21.0409 3.05616 21.6259 2.19872Z" fill="#161C22"/>
</svg>
