<svg width="21" height="21" viewBox="0 0 21 21" fill="none" xmlns="http://www.w3.org/2000/svg">
<path d="M20.6781 18.8921L15.9175 14.1315C17.0637 12.6057 17.6824 10.7485 17.6803 8.84016C17.6803 3.96573 13.7146 0 8.84016 0C3.96573 0 0 3.96573 0 8.84016C0 13.7146 3.96573 17.6803 8.84016 17.6803C10.7485 17.6824 12.6057 17.0637 14.1315 15.9175L18.8921 20.6781C19.1331 20.8936 19.4474 21.0085 19.7705 20.9995C20.0936 20.9905 20.401 20.8581 20.6295 20.6295C20.8581 20.401 20.9905 20.0936 20.9995 19.7705C21.0085 19.4474 20.8936 19.1331 20.6781 18.8921ZM2.52576 8.84016C2.52576 7.59129 2.89609 6.37047 3.58993 5.33207C4.28376 4.29367 5.26994 3.48434 6.42374 3.00642C7.57755 2.52849 8.84716 2.40345 10.072 2.64709C11.2969 2.89073 12.422 3.49212 13.3051 4.3752C14.1882 5.25829 14.7896 6.38341 15.0332 7.60828C15.2769 8.83315 15.1518 10.1028 14.6739 11.2566C14.196 12.4104 13.3867 13.3966 12.3483 14.0904C11.3099 14.7842 10.089 15.1546 8.84016 15.1546C7.16609 15.1526 5.56117 14.4866 4.37742 13.3029C3.19368 12.1192 2.52777 10.5142 2.52576 8.84016Z" fill="#9CCEFD" fill-opacity="0.8"/>
</svg>
