<svg width="322" height="257" viewBox="0 0 322 257" fill="none" xmlns="http://www.w3.org/2000/svg">
<rect x="64.4807" y="0.0812988" width="290.727" height="136.614" transform="rotate(27.85 64.4807 0.0812988)" fill="#57ABFB"/>
<path d="M87.3762 37.0376L86.3951 38.8944L88.8885 40.2118L88.2663 41.3895L85.7729 40.0721L84.7358 42.035L87.5475 43.5205L86.9084 44.7301L82.6113 42.4597L86.5298 35.0432L90.8269 37.3136L90.1878 38.5232L87.3762 37.0376ZM91.4324 45.3695L95.3003 41.6451L96.8812 42.4804L91.6005 47.2091L89.7967 46.2561L90.7379 39.2346L92.3295 40.0754L91.4324 45.3695ZM101.694 48.6199C101.582 48.8321 101.467 49.0156 101.349 49.1704L97.0519 46.9C96.863 47.3431 96.8359 47.754 96.9705 48.1328C97.1052 48.5116 97.3635 48.8019 97.7455 49.0037C98.2972 49.2952 98.815 49.2657 99.2988 48.9151L100.901 49.7616C100.432 50.2377 99.8601 50.5327 99.1848 50.6464C98.5132 50.753 97.8273 50.6213 97.127 50.2513C96.5611 49.9523 96.1173 49.5594 95.7954 49.0727C95.4843 48.5826 95.3229 48.0404 95.3112 47.4461C95.3065 46.8555 95.463 46.2596 95.7807 45.6584C96.1021 45.05 96.508 44.5814 96.9985 44.2524C97.489 43.9235 98.0225 43.7529 98.5989 43.7408C99.1753 43.7287 99.7536 43.8759 100.334 44.1823C100.892 44.4776 101.328 44.8613 101.639 45.3335C101.958 45.8094 102.119 46.3337 102.124 46.9064C102.14 47.4758 101.997 48.0469 101.694 48.6199ZM100.38 47.3826C100.575 46.9969 100.597 46.6199 100.448 46.2515C100.303 45.8761 100.035 45.5856 99.6465 45.3801C99.2786 45.1857 98.9076 45.1344 98.5334 45.2263C98.17 45.3147 97.8553 45.5421 97.5894 45.9083L100.38 47.3826ZM107.566 48.0172C108.266 48.3872 108.714 48.909 108.91 49.5826C109.11 50.2491 109.001 50.9785 108.582 51.7707L106.76 55.219L105.275 54.4341L106.99 51.1875C107.237 50.7206 107.309 50.3017 107.206 49.9308C107.108 49.5529 106.857 49.2574 106.453 49.0444C106.043 48.8276 105.65 48.783 105.275 48.9106C104.911 49.0348 104.606 49.3304 104.359 49.7972L102.644 53.0439L101.158 52.2591L104.264 46.3811L105.749 47.1659L105.363 47.898C105.695 47.748 106.051 47.6826 106.43 47.7018C106.819 47.7177 107.198 47.8229 107.566 48.0172ZM112.363 52.2212L110.861 55.0647C110.756 55.2628 110.726 55.4321 110.769 55.5726C110.823 55.7098 110.963 55.8382 111.19 55.9578L111.879 56.3222L111.218 57.5742L110.284 57.0809C109.032 56.4194 108.728 55.4803 109.371 54.2637L110.867 51.4308L110.167 51.0608L110.812 49.8407L111.512 50.2106L112.28 48.7571L113.776 49.5475L113.008 51.0011L114.324 51.6962L113.679 52.9164L112.363 52.2212ZM119.044 53.2942C118.782 53.156 118.606 52.9588 118.515 52.7026C118.435 52.4432 118.46 52.1897 118.591 51.9421C118.722 51.6945 118.915 51.5342 119.171 51.4613C119.437 51.3849 119.701 51.4159 119.963 51.5542C120.225 51.6925 120.396 51.8913 120.476 52.1508C120.566 52.4069 120.546 52.6587 120.416 52.9063C120.285 53.1539 120.086 53.3158 119.82 53.3922C119.564 53.4652 119.305 53.4325 119.044 53.2942ZM119.406 54.3813L116.3 60.2593L114.815 59.4745L117.92 53.5965L119.406 54.3813ZM118.95 57.8727C119.264 57.2785 119.659 56.8132 120.135 56.4768C120.618 56.1441 121.131 55.9623 121.672 55.9315C122.213 55.9007 122.734 56.018 123.237 56.2833C123.619 56.4851 123.938 56.7625 124.195 57.1154C124.456 57.4612 124.616 57.8262 124.675 58.2104L126.149 55.42L127.656 56.216L123.508 64.0675L122.001 63.2715L122.461 62.4014C122.124 62.5943 121.742 62.6913 121.316 62.6925C120.89 62.6936 120.458 62.5784 120.02 62.3467C119.524 62.0851 119.139 61.7186 118.863 61.2472C118.588 60.7757 118.451 60.2466 118.453 59.6598C118.467 59.0696 118.632 58.4739 118.95 57.8727ZM123.564 60.3381C123.755 59.9773 123.847 59.6323 123.84 59.3029C123.837 58.9664 123.75 58.6674 123.581 58.406C123.415 58.1375 123.194 57.9303 122.919 57.7846C122.643 57.6388 122.353 57.5715 122.048 57.5825C121.744 57.5936 121.448 57.6907 121.161 57.874C120.885 58.0539 120.654 58.3206 120.467 58.6743C120.28 59.028 120.186 59.3766 120.186 59.7201C120.196 60.0603 120.281 60.3628 120.439 60.6276C120.605 60.8962 120.822 61.1014 121.091 61.2434C121.367 61.3892 121.661 61.4584 121.972 61.4511C122.287 61.4367 122.583 61.3395 122.859 61.1596C123.139 60.9727 123.374 60.6988 123.564 60.3381ZM132.043 64.6547C131.931 64.8669 131.816 65.0504 131.698 65.2053L127.4 62.9349C127.212 63.378 127.184 63.7889 127.319 64.1677C127.454 64.5464 127.712 64.8367 128.094 65.0385C128.646 65.33 129.164 65.3005 129.647 64.9499L131.249 65.7964C130.781 66.2726 130.209 66.5675 129.533 66.6812C128.862 66.7878 128.176 66.6561 127.476 66.2861C126.91 65.9871 126.466 65.5943 126.144 65.1075C125.833 64.6174 125.671 64.0752 125.66 63.4809C125.655 62.8903 125.812 62.2944 126.129 61.6932C126.451 61.0849 126.857 60.6163 127.347 60.2873C127.838 59.9583 128.371 59.7878 128.947 59.7757C129.524 59.7635 130.102 59.9107 130.682 60.2172C131.241 60.5124 131.676 60.8961 131.988 61.3683C132.306 61.8443 132.468 62.3686 132.473 62.9413C132.489 63.5106 132.345 64.0818 132.043 64.6547ZM130.728 63.4175C130.923 63.0318 130.946 62.6547 130.797 62.2864C130.651 61.9109 130.384 61.6204 129.995 61.4149C129.627 61.2206 129.256 61.1693 128.882 61.2611C128.519 61.3496 128.204 61.5769 127.938 61.9431L130.728 63.4175ZM132.689 65.1319C133.003 64.5377 133.398 64.0724 133.874 63.736C134.358 63.4033 134.866 63.2196 135.4 63.1851C135.941 63.1543 136.463 63.2716 136.965 63.5369C137.404 63.7686 137.739 64.0588 137.971 64.4076C138.21 64.7601 138.358 65.123 138.414 65.4965L138.857 64.6583L140.353 65.4487L137.247 71.3267L135.751 70.5363L136.205 69.6768C135.868 69.8518 135.481 69.9415 135.045 69.9461C134.619 69.9472 134.187 69.832 133.748 69.6003C133.253 69.3387 132.868 68.9722 132.592 68.5007C132.323 68.0331 132.19 67.5058 132.193 66.919C132.206 66.3288 132.371 65.7331 132.689 65.1319ZM137.304 67.5973C137.494 67.2365 137.586 66.8915 137.579 66.5621C137.576 66.2256 137.49 65.9267 137.32 65.6652C137.154 65.3967 136.934 65.1895 136.658 65.0438C136.382 64.898 136.092 64.8307 135.787 64.8417C135.483 64.8528 135.187 64.9499 134.9 65.1332C134.624 65.3131 134.393 65.5799 134.206 65.9335C134.019 66.2872 133.926 66.6358 133.925 66.9793C133.935 67.3195 134.02 67.622 134.178 67.8868C134.344 68.1554 134.561 68.3606 134.83 68.5026C135.106 68.6484 135.4 68.7176 135.711 68.7103C136.027 68.6959 136.322 68.5987 136.598 68.4188C136.878 68.2319 137.113 67.958 137.304 67.5973ZM152.796 73.4485L151.583 74.8974L152.93 75.6094L152.23 76.9356L150.596 76.0723L149.261 77.6742L147.849 76.9287L149.184 75.3268L147.253 74.3065L145.918 75.9084L144.518 75.1684L145.853 73.5665L144.251 72.72L144.951 71.3937L146.84 72.3916L148.054 70.9426L146.462 70.1018L147.163 68.7755L149.041 69.7677L150.343 68.2027L151.743 68.9427L150.441 70.5077L152.372 71.528L153.674 69.9629L155.085 70.7085L153.783 72.2736L155.142 72.9911L154.441 74.3174L152.796 73.4485ZM151.385 72.7029L149.454 71.6826L148.241 73.1316L150.172 74.1519L151.385 72.7029ZM156.024 73.9595C156.433 73.2709 156.968 72.857 157.63 72.718C158.302 72.5756 159.017 72.7044 159.774 73.1043C160.29 73.3771 160.684 73.7026 160.954 74.0809C161.229 74.452 161.376 74.8418 161.395 75.2502C161.425 75.6553 161.338 76.0523 161.132 76.4414C160.897 76.887 160.58 77.2038 160.182 77.3917C159.795 77.5762 159.415 77.6375 159.04 77.5754L159.018 77.6178C159.361 77.9619 159.559 78.3564 159.614 78.8014C159.675 79.2501 159.572 79.7291 159.302 80.2384C159.078 80.6628 158.779 80.9889 158.406 81.2167C158.039 81.4482 157.614 81.5586 157.131 81.5478C156.659 81.5336 156.158 81.3864 155.627 81.1061C154.828 80.6838 154.284 80.1383 153.995 79.4698C153.706 78.8013 153.754 78.067 154.141 77.2669L155.584 78.0293C155.415 78.3833 155.384 78.7244 155.491 79.0525C155.609 79.3772 155.863 79.6423 156.252 79.8479C156.612 80.0385 156.94 80.0852 157.236 79.9881C157.543 79.8876 157.78 79.6782 157.948 79.3599C158.172 78.9355 158.199 78.5603 158.027 78.2344C157.855 77.9085 157.487 77.596 156.921 77.297L156.613 77.1344L157.258 75.9143L157.565 76.0769C158.57 76.6076 159.25 76.5369 159.605 75.8649C159.765 75.5608 159.799 75.2752 159.704 75.0083C159.617 74.7451 159.404 74.5238 159.064 74.3444C158.732 74.1688 158.425 74.1243 158.144 74.2111C157.874 74.2945 157.652 74.4666 157.478 74.7275L156.024 73.9595ZM161.441 79.0336C162.087 77.8099 162.813 76.9674 163.618 76.5059C164.429 76.0481 165.348 76.0902 166.374 76.6321C167.399 77.174 167.948 77.9074 168.021 78.8323C168.1 79.761 167.817 80.8371 167.17 82.0608C166.52 83.2916 165.787 84.1394 164.971 84.6042C164.163 85.0728 163.246 85.0361 162.22 84.4942C161.194 83.9523 160.644 83.2135 160.568 82.2778C160.499 81.3458 160.79 80.2644 161.441 79.0336ZM165.706 81.2872C165.982 80.7638 166.179 80.3065 166.295 79.9155C166.422 79.5211 166.442 79.1566 166.357 78.8218C166.278 78.4909 166.041 78.2207 165.645 78.0114C165.249 77.8021 164.889 77.7565 164.564 77.8744C164.246 77.9962 163.957 78.2187 163.695 78.5421C163.445 78.8621 163.181 79.2838 162.905 79.8073C162.621 80.3448 162.413 80.8144 162.283 81.2158C162.156 81.6102 162.135 81.9747 162.221 82.3095C162.31 82.6371 162.553 82.9056 162.949 83.1149C163.345 83.3242 163.703 83.3734 164.024 83.2625C164.349 83.1445 164.638 82.922 164.893 82.5949C165.151 82.2607 165.422 81.8248 165.706 81.2872ZM169.386 80.1646L170.11 78.7959L172.667 80.1469L168.58 87.8817L167.052 87.0744L170.416 80.7084L169.386 80.1646ZM171.4 87.2273C172.378 87.0202 173.168 86.8357 173.769 86.6738C174.374 86.5049 174.919 86.2863 175.405 86.018C175.89 85.7498 176.238 85.4176 176.447 85.0215C176.637 84.6608 176.702 84.333 176.641 84.0382C176.579 83.7433 176.372 83.5025 176.018 83.3156C175.664 83.1288 175.329 83.1051 175.011 83.2447C174.696 83.3772 174.427 83.6468 174.203 84.0533L172.76 83.2909C173.237 82.457 173.828 81.946 174.534 81.7579C175.247 81.5734 175.971 81.6756 176.706 82.0643C177.513 82.4903 178.018 83.0331 178.221 83.6925C178.428 84.3449 178.347 85.0212 177.977 85.7215C177.686 86.2732 177.259 86.7217 176.696 87.0669C176.134 87.4122 175.563 87.6713 174.983 87.8444C174.406 88.0104 173.672 88.1926 172.78 88.3908L175.91 90.0446L175.26 91.2754L170.018 88.506L170.601 87.4026L171.4 87.2273Z" fill="#161C22"/>
<rect x="70.2002" y="64.1772" width="162" height="3" rx="1.5" transform="rotate(27.85 70.2002 64.1772)" fill="#161C22"/>
<rect x="62.2585" y="79.208" width="162" height="3" rx="1.5" transform="rotate(27.85 62.2585 79.208)" fill="#161C22"/>
<rect x="54.784" y="93.355" width="186" height="3" rx="1.5" transform="rotate(27.85 54.784 93.355)" fill="#161C22"/>
</svg>
