<svg width="810" height="765" viewBox="0 0 810 765" fill="none" xmlns="http://www.w3.org/2000/svg">
<rect x="246.478" y="0.998535" width="290.727" height="136.614" transform="rotate(27.85 246.478 0.998535)" fill="#233141" fill-opacity="0.5"/>
<rect x="552.402" y="162.635" width="290.727" height="136.614" transform="rotate(27.85 552.402 162.635)" fill="#233141" fill-opacity="0.5"/>
<rect x="156.317" y="171.644" width="290.727" height="136.614" transform="rotate(27.85 156.317 171.644)" fill="#233141" fill-opacity="0.5"/>
<rect x="63.8192" y="346.71" width="290.727" height="136.614" transform="rotate(27.85 63.8192 346.71)" fill="#233141" fill-opacity="0.5"/>
<rect x="369.743" y="508.347" width="290.727" height="136.614" transform="rotate(27.85 369.743 508.347)" fill="#233141" fill-opacity="0.5"/>
<path d="M267.679 42.5234L266.698 44.3802L269.192 45.6976L268.569 46.8753L266.076 45.5579L265.039 47.5208L267.851 49.0064L267.212 50.2159L262.914 47.9455L266.833 40.5291L271.13 42.7995L270.491 44.009L267.679 42.5234ZM271.736 50.8554L275.603 47.1309L277.184 47.9662L271.904 52.695L270.1 51.742L271.041 44.7204L272.633 45.5613L271.736 50.8554ZM281.997 54.1057C281.885 54.3179 281.77 54.5014 281.652 54.6562L277.355 52.3859C277.166 52.8289 277.139 53.2399 277.274 53.6187C277.408 53.9974 277.667 54.2877 278.049 54.4895C278.6 54.781 279.118 54.7515 279.602 54.4009L281.204 55.2474C280.735 55.7236 280.163 56.0185 279.488 56.1322C278.816 56.2388 278.13 56.1071 277.43 55.7371C276.864 55.4381 276.42 55.0453 276.099 54.5585C275.787 54.0684 275.626 53.5262 275.614 52.9319C275.61 52.3413 275.766 51.7454 276.084 51.1442C276.405 50.5359 276.811 50.0672 277.302 49.7383C277.792 49.4093 278.326 49.2388 278.902 49.2267C279.479 49.2145 280.057 49.3617 280.637 49.6682C281.196 49.9634 281.631 50.3471 281.942 50.8193C282.261 51.2953 282.423 51.8196 282.428 52.3923C282.443 52.9616 282.3 53.5328 281.997 54.1057ZM280.683 52.8685C280.878 52.4828 280.901 52.1057 280.751 51.7374C280.606 51.3619 280.339 51.0714 279.95 50.8659C279.582 50.6716 279.211 50.6203 278.837 50.7121C278.473 50.8006 278.158 51.0279 277.893 51.3941L280.683 52.8685ZM287.869 53.503C288.569 53.873 289.018 54.3948 289.214 55.0684C289.413 55.7349 289.304 56.4643 288.885 57.2565L287.064 60.7048L285.578 59.92L287.294 56.6733C287.54 56.2065 287.612 55.7876 287.51 55.4167C287.411 55.0387 287.16 54.7432 286.756 54.5302C286.346 54.3134 285.954 54.2688 285.579 54.3964C285.214 54.5207 284.909 54.8162 284.662 55.283L282.947 58.5297L281.461 57.7449L284.567 51.8669L286.052 52.6517L285.666 53.3838C285.998 53.2338 286.354 53.1685 286.733 53.1877C287.123 53.2036 287.501 53.3087 287.869 53.503ZM292.667 57.7071L291.164 60.5506C291.059 60.7486 291.029 60.9179 291.072 61.0585C291.126 61.1957 291.267 61.3241 291.493 61.4437L292.183 61.808L291.521 63.06L290.587 62.5667C289.335 61.9052 289.031 60.9662 289.674 59.7495L291.17 56.9166L290.47 56.5467L291.115 55.3265L291.815 55.6965L292.583 54.2429L294.079 55.0333L293.311 56.4869L294.627 57.182L293.982 58.4022L292.667 57.7071ZM299.347 58.7801C299.085 58.6418 298.909 58.4446 298.818 58.1885C298.738 57.929 298.763 57.6755 298.894 57.4279C299.025 57.1804 299.218 57.0201 299.474 56.9471C299.74 56.8708 300.004 56.9017 300.266 57.04C300.528 57.1783 300.699 57.3772 300.779 57.6366C300.87 57.8927 300.85 58.1446 300.719 58.3922C300.588 58.6397 300.389 58.8017 300.123 58.878C299.867 58.951 299.608 58.9183 299.347 58.7801ZM299.709 59.8671L296.603 65.7451L295.118 64.9603L298.223 59.0823L299.709 59.8671ZM299.253 63.3585C299.567 62.7643 299.962 62.299 300.438 61.9626C300.922 61.6299 301.434 61.4481 301.975 61.4173C302.516 61.3865 303.038 61.5038 303.54 61.7691C303.922 61.971 304.241 62.2483 304.498 62.6012C304.759 62.947 304.919 63.312 304.978 63.6963L306.453 60.9058L307.959 61.7019L303.811 69.5533L302.304 68.7573L302.764 67.8873C302.427 68.0801 302.045 68.1771 301.619 68.1783C301.193 68.1795 300.761 68.0642 300.323 67.8325C299.828 67.5709 299.442 67.2044 299.166 66.733C298.891 66.2616 298.754 65.7325 298.756 65.1456C298.77 64.5555 298.935 63.9598 299.253 63.3585ZM303.868 65.8239C304.058 65.4632 304.15 65.1181 304.143 64.7887C304.14 64.4522 304.054 64.1533 303.884 63.8918C303.718 63.6233 303.498 63.4161 303.222 63.2704C302.946 63.1246 302.656 63.0573 302.351 63.0684C302.047 63.0794 301.751 63.1766 301.464 63.3598C301.188 63.5397 300.957 63.8065 300.77 64.1602C300.583 64.5138 300.489 64.8624 300.489 65.206C300.499 65.5462 300.584 65.8487 300.742 66.1135C300.908 66.382 301.125 66.5873 301.394 66.7293C301.67 66.875 301.964 66.9442 302.275 66.9369C302.59 66.9225 302.886 66.8254 303.162 66.6455C303.442 66.4585 303.677 66.1846 303.868 65.8239ZM312.346 70.1406C312.234 70.3528 312.119 70.5363 312.001 70.6911L307.704 68.4207C307.515 68.8638 307.488 69.2747 307.622 69.6535C307.757 70.0323 308.015 70.3226 308.397 70.5244C308.949 70.8159 309.467 70.7863 309.951 70.4358L311.553 71.2823C311.084 71.7584 310.512 72.0534 309.837 72.167C309.165 72.2736 308.479 72.142 307.779 71.772C307.213 71.473 306.769 71.0801 306.447 70.5934C306.136 70.1033 305.975 69.5611 305.963 68.9668C305.958 68.3762 306.115 67.7803 306.432 67.179C306.754 66.5707 307.16 66.1021 307.65 65.7731C308.141 65.4442 308.674 65.2736 309.251 65.2615C309.827 65.2494 310.405 65.3965 310.985 65.703C311.544 65.9982 311.979 66.382 312.291 66.8542C312.609 67.3301 312.771 67.8544 312.776 68.4271C312.792 68.9965 312.649 69.5676 312.346 70.1406ZM311.032 68.9033C311.226 68.5176 311.249 68.1406 311.1 67.7722C310.954 67.3968 310.687 67.1063 310.298 66.9007C309.93 66.7064 309.559 66.6551 309.185 66.7469C308.822 66.8354 308.507 67.0628 308.241 67.429L311.032 68.9033ZM312.992 70.6177C313.306 70.0236 313.701 69.5582 314.177 69.2218C314.661 68.8891 315.17 68.7055 315.704 68.6709C316.245 68.6401 316.766 68.7574 317.268 69.0227C317.707 69.2545 318.042 69.5447 318.274 69.8934C318.513 70.2459 318.661 70.6089 318.717 70.9823L319.16 70.1441L320.656 70.9345L317.55 76.8125L316.054 76.0221L316.508 75.1627C316.171 75.3376 315.785 75.4274 315.348 75.4319C314.922 75.4331 314.49 75.3178 314.051 75.0861C313.556 74.8245 313.171 74.458 312.895 73.9866C312.626 73.5189 312.493 72.9917 312.496 72.4048C312.509 71.8147 312.674 71.219 312.992 70.6177ZM317.607 73.0831C317.797 72.7224 317.889 72.3773 317.882 72.0479C317.879 71.7115 317.793 71.4125 317.623 71.151C317.458 70.8825 317.237 70.6754 316.961 70.5296C316.685 70.3838 316.395 70.3165 316.09 70.3276C315.786 70.3386 315.49 70.4358 315.204 70.619C314.928 70.7989 314.696 71.0657 314.509 71.4194C314.322 71.773 314.229 72.1216 314.228 72.4652C314.238 72.8054 314.323 73.1079 314.482 73.3727C314.647 73.6412 314.865 73.8465 315.133 73.9885C315.409 74.1342 315.703 74.2035 316.014 74.1961C316.33 74.1817 316.625 74.0846 316.901 73.9047C317.181 73.7177 317.416 73.4439 317.607 73.0831ZM333.099 78.9343L331.886 80.3833L333.233 81.0952L332.533 82.4215L330.899 81.5582L329.564 83.1601L328.153 82.4145L329.488 80.8126L327.557 79.7923L326.222 81.3942L324.821 80.6542L326.156 79.0523L324.554 78.2058L325.255 76.8796L327.143 77.8774L328.357 76.4285L326.765 75.5876L327.466 74.2613L329.344 75.2536L330.646 73.6885L332.046 74.4285L330.744 75.9936L332.675 77.0138L333.977 75.4488L335.389 76.1943L334.087 77.7594L335.445 78.477L334.744 79.8032L333.099 78.9343ZM331.688 78.1887L329.757 77.1685L328.544 78.6174L330.475 79.6377L331.688 78.1887ZM335.392 81.1636C336.039 79.9399 336.764 79.0973 337.569 78.6358C338.381 78.1781 339.3 78.2202 340.325 78.7621C341.351 79.304 341.9 80.0374 341.972 80.9623C342.052 81.8909 341.768 82.9671 341.122 84.1908C340.471 85.4216 339.738 86.2694 338.923 86.7342C338.114 87.2027 337.197 87.1661 336.171 86.6242C335.146 86.0822 334.595 85.3434 334.52 84.4077C334.451 83.4758 334.742 82.3944 335.392 81.1636ZM339.657 83.4172C339.934 82.8937 340.13 82.4365 340.246 82.0455C340.373 81.6511 340.394 81.2865 340.309 80.9518C340.23 80.6208 339.993 80.3507 339.597 80.1414C339.201 79.9321 338.84 79.8864 338.515 80.0044C338.198 80.1261 337.908 80.3487 337.647 80.672C337.396 80.9921 337.133 81.4138 336.856 81.9372C336.572 82.4748 336.365 82.9443 336.234 83.3458C336.107 83.7401 336.087 84.1047 336.172 84.4394C336.261 84.7671 336.504 85.0356 336.9 85.2448C337.296 85.4541 337.655 85.5033 337.976 85.3924C338.301 85.2745 338.59 85.0519 338.844 84.7248C339.102 84.3906 339.373 83.9548 339.657 83.4172ZM342.251 84.7877C342.898 83.564 343.624 82.7214 344.428 82.26C345.24 81.8022 346.159 81.8443 347.185 82.3862C348.21 82.9281 348.759 83.6615 348.832 84.5864C348.911 85.5151 348.627 86.5912 347.981 87.8149C347.331 89.0457 346.598 89.8935 345.782 90.3583C344.973 90.8269 344.056 90.7902 343.031 90.2483C342.005 89.7064 341.454 88.9676 341.379 88.0319C341.31 87.0999 341.601 86.0185 342.251 84.7877ZM346.517 87.0413C346.793 86.5179 346.99 86.0606 347.106 85.6696C347.233 85.2752 347.253 84.9107 347.168 84.5759C347.089 84.2449 346.852 83.9748 346.456 83.7655C346.06 83.5562 345.699 83.5106 345.375 83.6285C345.057 83.7502 344.768 83.9728 344.506 84.2962C344.256 84.6162 343.992 85.0379 343.716 85.5613C343.432 86.0989 343.224 86.5684 343.094 86.9699C342.967 87.3643 342.946 87.7288 343.031 88.0636C343.121 88.3912 343.363 88.6597 343.76 88.869C344.156 89.0783 344.514 89.1275 344.835 89.0166C345.16 88.8986 345.449 88.6761 345.704 88.3489C345.962 88.0148 346.233 87.5789 346.517 87.0413ZM349.882 91.1131C349.774 91.4542 349.774 91.762 349.883 92.0364C350.002 92.3075 350.231 92.5327 350.571 92.7121C351.009 92.9438 351.423 92.9316 351.812 92.6755C352.204 92.4124 352.628 91.8493 353.084 90.9863C352.802 91.1267 352.479 91.1821 352.114 91.1525C351.757 91.1265 351.409 91.0239 351.069 90.8445C350.616 90.6053 350.255 90.2966 349.984 89.9184C349.724 89.5368 349.585 89.106 349.567 88.6261C349.553 88.1391 349.686 87.6303 349.967 87.0998C350.382 86.3147 350.944 85.8155 351.654 85.6024C352.367 85.3823 353.127 85.4852 353.933 85.9112C354.938 86.4419 355.475 87.1375 355.545 87.9979C355.623 88.8621 355.319 89.9414 354.635 91.2358C354.149 92.1554 353.67 92.8657 353.197 93.3669C352.731 93.8717 352.224 94.1735 351.674 94.2721C351.131 94.3744 350.527 94.2499 349.863 93.8986C349.339 93.6221 348.946 93.2876 348.683 92.8952C348.423 92.4957 348.28 92.081 348.254 91.651C348.239 91.2176 348.322 90.7954 348.503 90.3844L349.882 91.1131ZM352.016 89.7975C352.384 89.9919 352.733 90.0319 353.065 89.9177C353.397 89.8035 353.664 89.5554 353.866 89.1734C354.086 88.7561 354.143 88.3744 354.036 88.0285C353.94 87.6792 353.701 87.4037 353.319 87.2019C352.937 87.0001 352.57 86.9596 352.216 87.0805C351.874 87.1981 351.6 87.4514 351.394 87.8404C351.196 88.2153 351.14 88.579 351.225 88.9317C351.321 89.2809 351.584 89.5696 352.016 89.7975ZM355.008 94.4595C355.986 94.2524 356.776 94.0679 357.377 93.906C357.982 93.7371 358.527 93.5185 359.013 93.2503C359.499 92.982 359.846 92.6498 360.055 92.2537C360.246 91.893 360.311 91.5652 360.249 91.2704C360.188 90.9756 359.98 90.7347 359.627 90.5479C359.273 90.361 358.937 90.3374 358.619 90.4769C358.305 90.6095 358.036 90.879 357.812 91.2855L356.369 90.5231C356.846 89.6892 357.437 89.1782 358.142 88.9901C358.855 88.8057 359.579 88.9078 360.315 89.2965C361.121 89.7225 361.626 90.2653 361.83 90.9247C362.037 91.5771 361.956 92.2534 361.586 92.9537C361.294 93.5054 360.867 93.9539 360.305 94.2991C359.742 94.6444 359.171 94.9035 358.591 95.0766C358.015 95.2426 357.281 95.4248 356.389 95.6231L359.519 97.2768L358.868 98.5076L353.627 95.7382L354.21 94.6348L355.008 94.4595Z" fill="#F55F44" fill-opacity="0.5"/>
<path d="M572.658 211.601L572.549 207.851L571.849 207.481L570.324 210.367L568.839 209.582L572.751 202.177L575.531 203.645C576.104 203.948 576.538 204.309 576.833 204.727C577.131 205.138 577.288 205.569 577.303 206.02C577.329 206.468 577.23 206.904 577.005 207.329C576.748 207.817 576.372 208.184 575.88 208.431C575.392 208.67 574.829 208.717 574.192 208.57L574.377 212.509L572.658 211.601ZM572.437 206.367L573.679 207.023C574.082 207.236 574.433 207.3 574.732 207.213C575.035 207.12 575.278 206.9 575.461 206.553C575.64 206.214 575.679 205.9 575.578 205.611C575.481 205.315 575.231 205.061 574.828 204.848L573.587 204.192L572.437 206.367ZM582.72 212.994C582.608 213.207 582.493 213.39 582.375 213.545L578.078 211.275C577.889 211.718 577.862 212.129 577.996 212.507C578.131 212.886 578.389 213.176 578.771 213.378C579.323 213.67 579.841 213.64 580.325 213.29L581.927 214.136C581.458 214.612 580.886 214.907 580.211 215.021C579.539 215.128 578.853 214.996 578.153 214.626C577.587 214.327 577.143 213.934 576.821 213.447C576.51 212.957 576.349 212.415 576.337 211.821C576.332 211.23 576.489 210.634 576.806 210.033C577.128 209.425 577.534 208.956 578.024 208.627C578.515 208.298 579.048 208.128 579.625 208.115C580.201 208.103 580.779 208.25 581.359 208.557C581.918 208.852 582.353 209.236 582.665 209.708C582.983 210.184 583.145 210.708 583.15 211.281C583.166 211.85 583.023 212.422 582.72 212.994ZM581.406 211.757C581.6 211.372 581.623 210.994 581.474 210.626C581.329 210.251 581.061 209.96 580.672 209.755C580.304 209.56 579.933 209.509 579.559 209.601C579.196 209.689 578.881 209.917 578.615 210.283L581.406 211.757ZM589.268 216.454C589.156 216.667 589.041 216.85 588.923 217.005L584.626 214.735C584.437 215.178 584.41 215.589 584.545 215.967C584.679 216.346 584.938 216.636 585.32 216.838C585.871 217.13 586.389 217.1 586.873 216.75L588.475 217.596C588.006 218.072 587.434 218.367 586.759 218.481C586.087 218.587 585.401 218.456 584.701 218.086C584.135 217.787 583.691 217.394 583.37 216.907C583.058 216.417 582.897 215.875 582.885 215.281C582.881 214.69 583.037 214.094 583.355 213.493C583.676 212.885 584.082 212.416 584.573 212.087C585.063 211.758 585.597 211.587 586.173 211.575C586.75 211.563 587.328 211.71 587.908 212.017C588.467 212.312 588.902 212.696 589.213 213.168C589.532 213.644 589.694 214.168 589.699 214.741C589.714 215.31 589.571 215.881 589.268 216.454ZM587.954 215.217C588.149 214.831 588.172 214.454 588.022 214.086C587.877 213.711 587.61 213.42 587.221 213.215C586.853 213.02 586.482 212.969 586.108 213.061C585.744 213.149 585.43 213.377 585.164 213.743L587.954 215.217ZM594.366 213.027L590.218 220.878L588.732 220.094L592.881 212.242L594.366 213.027ZM598.443 216.809C598.181 216.671 598.005 216.474 597.914 216.218C597.834 215.958 597.859 215.705 597.99 215.457C598.121 215.21 598.314 215.049 598.57 214.976C598.836 214.9 599.1 214.931 599.362 215.069C599.624 215.208 599.795 215.406 599.875 215.666C599.966 215.922 599.946 216.174 599.815 216.421C599.684 216.669 599.485 216.831 599.219 216.907C598.963 216.98 598.704 216.948 598.443 216.809ZM598.805 217.896L595.699 223.774L594.214 222.99L597.319 217.112L598.805 217.896ZM598.349 221.388C598.663 220.794 599.058 220.328 599.534 219.992C600.018 219.659 600.53 219.477 601.071 219.447C601.612 219.416 602.134 219.533 602.636 219.798C603.018 220 603.337 220.278 603.594 220.63C603.855 220.976 604.015 221.341 604.074 221.726L605.548 218.935L607.055 219.731L602.907 227.583L601.4 226.787L601.86 225.917C601.523 226.109 601.141 226.206 600.715 226.208C600.289 226.209 599.857 226.093 599.419 225.862C598.923 225.6 598.538 225.234 598.262 224.762C597.987 224.291 597.85 223.762 597.852 223.175C597.866 222.585 598.031 221.989 598.349 221.388ZM602.964 223.853C603.154 223.492 603.246 223.147 603.239 222.818C603.236 222.482 603.149 222.183 602.98 221.921C602.814 221.653 602.593 221.445 602.318 221.3C602.042 221.154 601.752 221.087 601.447 221.098C601.143 221.109 600.847 221.206 600.56 221.389C600.284 221.569 600.053 221.836 599.866 222.189C599.679 222.543 599.585 222.892 599.585 223.235C599.595 223.575 599.68 223.878 599.838 224.143C600.004 224.411 600.221 224.617 600.49 224.759C600.766 224.904 601.06 224.974 601.371 224.966C601.686 224.952 601.982 224.855 602.258 224.675C602.538 224.488 602.773 224.214 602.964 223.853ZM611.442 228.17C611.33 228.382 611.215 228.566 611.097 228.72L606.8 226.45C606.611 226.893 606.584 227.304 606.718 227.683C606.853 228.062 607.111 228.352 607.493 228.554C608.045 228.845 608.563 228.816 609.046 228.465L610.649 229.312C610.18 229.788 609.608 230.083 608.932 230.196C608.261 230.303 607.575 230.171 606.875 229.801C606.309 229.502 605.865 229.109 605.543 228.623C605.232 228.133 605.071 227.59 605.059 226.996C605.054 226.405 605.211 225.81 605.528 225.208C605.85 224.6 606.256 224.131 606.746 223.802C607.237 223.473 607.77 223.303 608.347 223.291C608.923 223.279 609.501 223.426 610.081 223.732C610.64 224.028 611.075 224.411 611.387 224.883C611.705 225.359 611.867 225.884 611.872 226.456C611.888 227.026 611.744 227.597 611.442 228.17ZM610.128 226.933C610.322 226.547 610.345 226.17 610.196 225.801C610.05 225.426 609.783 225.136 609.394 224.93C609.026 224.736 608.655 224.684 608.281 224.776C607.918 224.865 607.603 225.092 607.337 225.458L610.128 226.933ZM612.088 228.647C612.402 228.053 612.797 227.588 613.273 227.251C613.757 226.918 614.265 226.735 614.799 226.7C615.341 226.669 615.862 226.787 616.364 227.052C616.803 227.284 617.138 227.574 617.37 227.923C617.609 228.275 617.757 228.638 617.813 229.012L618.256 228.173L619.752 228.964L616.646 234.842L615.15 234.051L615.604 233.192C615.267 233.367 614.881 233.457 614.444 233.461C614.018 233.462 613.586 233.347 613.147 233.115C612.652 232.854 612.267 232.487 611.991 232.016C611.722 231.548 611.589 231.021 611.592 230.434C611.605 229.844 611.77 229.248 612.088 228.647ZM616.703 231.112C616.893 230.752 616.985 230.407 616.978 230.077C616.975 229.741 616.889 229.442 616.719 229.18C616.553 228.912 616.333 228.705 616.057 228.559C615.781 228.413 615.491 228.346 615.186 228.357C614.882 228.368 614.586 228.465 614.299 228.648C614.023 228.828 613.792 229.095 613.605 229.449C613.418 229.802 613.325 230.151 613.324 230.494C613.334 230.835 613.419 231.137 613.577 231.402C613.743 231.67 613.96 231.876 614.229 232.018C614.505 232.163 614.799 232.233 615.11 232.225C615.426 232.211 615.721 232.114 615.997 231.934C616.277 231.747 616.512 231.473 616.703 231.112ZM632.195 236.964L630.982 238.413L632.329 239.124L631.629 240.451L629.995 239.587L628.66 241.189L627.249 240.444L628.584 238.842L626.652 237.822L625.318 239.423L623.917 238.684L625.252 237.082L623.65 236.235L624.351 234.909L626.239 235.907L627.453 234.458L625.861 233.617L626.562 232.291L628.44 233.283L629.742 231.718L631.142 232.458L629.84 234.023L631.771 235.043L633.073 233.478L634.484 234.224L633.183 235.789L634.541 236.506L633.84 237.832L632.195 236.964ZM630.784 236.218L628.853 235.198L627.64 236.647L629.571 237.667L630.784 236.218ZM634.488 239.193C635.135 237.969 635.86 237.127 636.665 236.665C637.477 236.207 638.396 236.249 639.421 236.791C640.447 237.333 640.996 238.067 641.068 238.992C641.148 239.92 640.864 240.996 640.218 242.22C639.567 243.451 638.834 244.299 638.019 244.763C637.21 245.232 636.293 245.195 635.267 244.653C634.242 244.112 633.691 243.373 633.615 242.437C633.547 241.505 633.838 240.424 634.488 239.193ZM638.753 241.446C639.03 240.923 639.226 240.466 639.342 240.075C639.469 239.68 639.49 239.316 639.404 238.981C639.326 238.65 639.089 238.38 638.693 238.171C638.296 237.961 637.936 237.916 637.611 238.034C637.294 238.155 637.004 238.378 636.743 238.701C636.492 239.021 636.229 239.443 635.952 239.966C635.668 240.504 635.461 240.974 635.33 241.375C635.203 241.769 635.183 242.134 635.268 242.469C635.357 242.796 635.6 243.065 635.996 243.274C636.392 243.483 636.751 243.533 637.072 243.422C637.397 243.304 637.686 243.081 637.94 242.754C638.198 242.42 638.469 241.984 638.753 241.446ZM641.347 242.817C641.994 241.593 642.72 240.751 643.524 240.289C644.336 239.831 645.255 239.874 646.281 240.415C647.306 240.957 647.855 241.691 647.928 242.616C648.007 243.544 647.723 244.62 647.077 245.844C646.426 247.075 645.694 247.923 644.878 248.388C644.069 248.856 643.152 248.819 642.127 248.278C641.101 247.736 640.55 246.997 640.475 246.061C640.406 245.129 640.697 244.048 641.347 242.817ZM645.613 245.071C645.889 244.547 646.085 244.09 646.202 243.699C646.329 243.304 646.349 242.94 646.264 242.605C646.185 242.274 645.948 242.004 645.552 241.795C645.156 241.585 644.795 241.54 644.471 241.658C644.153 241.78 643.863 242.002 643.602 242.325C643.352 242.645 643.088 243.067 642.812 243.591C642.527 244.128 642.32 244.598 642.189 244.999C642.062 245.394 642.042 245.758 642.127 246.093C642.217 246.42 642.459 246.689 642.855 246.898C643.252 247.108 643.61 247.157 643.931 247.046C644.256 246.928 644.545 246.705 644.8 246.378C645.058 246.044 645.329 245.608 645.613 245.071ZM648.978 249.142C648.87 249.484 648.87 249.791 648.979 250.066C649.098 250.337 649.327 250.562 649.667 250.741C650.105 250.973 650.519 250.961 650.908 250.705C651.3 250.442 651.724 249.879 652.18 249.016C651.898 249.156 651.575 249.211 651.21 249.182C650.853 249.156 650.504 249.053 650.165 248.874C649.712 248.635 649.351 248.326 649.08 247.948C648.82 247.566 648.681 247.135 648.663 246.655C648.649 246.168 648.782 245.66 649.063 245.129C649.477 244.344 650.04 243.845 650.75 243.632C651.463 243.412 652.223 243.514 653.029 243.94C654.034 244.471 654.571 245.167 654.641 246.027C654.718 246.891 654.415 247.971 653.731 249.265C653.245 250.185 652.766 250.895 652.293 251.396C651.827 251.901 651.32 252.203 650.77 252.301C650.227 252.404 649.623 252.279 648.958 251.928C648.435 251.651 648.042 251.317 647.779 250.924C647.519 250.525 647.376 250.11 647.35 249.68C647.335 249.247 647.418 248.825 647.599 248.414L648.978 249.142ZM651.112 247.827C651.48 248.021 651.829 248.061 652.161 247.947C652.493 247.833 652.76 247.585 652.962 247.203C653.182 246.785 653.239 246.404 653.132 246.058C653.036 245.708 652.797 245.433 652.415 245.231C652.033 245.029 651.666 244.989 651.312 245.11C650.97 245.227 650.696 245.481 650.49 245.87C650.292 246.245 650.235 246.608 650.321 246.961C650.417 247.31 650.68 247.599 651.112 247.827ZM654.104 252.489C655.082 252.282 655.872 252.097 656.473 251.935C657.078 251.766 657.623 251.548 658.109 251.28C658.594 251.011 658.942 250.679 659.151 250.283C659.342 249.922 659.406 249.594 659.345 249.3C659.284 249.005 659.076 248.764 658.722 248.577C658.369 248.39 658.033 248.367 657.715 248.506C657.401 248.639 657.131 248.908 656.908 249.315L655.465 248.552C655.941 247.718 656.533 247.207 657.238 247.019C657.951 246.835 658.675 246.937 659.411 247.326C660.217 247.752 660.722 248.295 660.926 248.954C661.133 249.606 661.051 250.283 660.681 250.983C660.39 251.535 659.963 251.983 659.401 252.328C658.838 252.674 658.267 252.933 657.687 253.106C657.111 253.272 656.376 253.454 655.484 253.652L658.614 255.306L657.964 256.537L652.723 253.768L653.306 252.664L654.104 252.489Z" fill="#1B6FD2"/>
<path d="M386.74 557.83L385.759 559.687L388.252 561.004L387.63 562.182L385.137 560.864L384.1 562.827L386.911 564.313L386.272 565.522L381.975 563.252L385.894 555.835L390.191 558.106L389.552 559.315L386.74 557.83ZM390.796 566.162L394.664 562.437L396.245 563.273L390.964 568.001L389.161 567.048L390.102 560.027L391.693 560.868L390.796 566.162ZM401.058 569.412C400.946 569.624 400.831 569.808 400.713 569.963L396.416 567.692C396.227 568.135 396.2 568.546 396.334 568.925C396.469 569.304 396.727 569.594 397.109 569.796C397.661 570.087 398.179 570.058 398.663 569.707L400.265 570.554C399.796 571.03 399.224 571.325 398.549 571.439C397.877 571.545 397.191 571.414 396.491 571.044C395.925 570.745 395.481 570.352 395.159 569.865C394.848 569.375 394.687 568.833 394.675 568.238C394.67 567.648 394.827 567.052 395.145 566.451C395.466 565.842 395.872 565.374 396.362 565.045C396.853 564.716 397.386 564.545 397.963 564.533C398.539 564.521 399.117 564.668 399.697 564.975C400.256 565.27 400.691 565.654 401.003 566.126C401.321 566.602 401.483 567.126 401.488 567.699C401.504 568.268 401.361 568.839 401.058 569.412ZM399.744 568.175C399.939 567.789 399.961 567.412 399.812 567.044C399.667 566.668 399.399 566.378 399.01 566.172C398.643 565.978 398.272 565.927 397.897 566.018C397.534 566.107 397.219 566.334 396.953 566.701L399.744 568.175ZM406.93 568.809C407.63 569.179 408.078 569.701 408.274 570.375C408.474 571.041 408.365 571.771 407.946 572.563L406.124 576.011L404.639 575.226L406.354 571.98C406.601 571.513 406.673 571.094 406.57 570.723C406.471 570.345 406.22 570.05 405.817 569.837C405.407 569.62 405.014 569.575 404.639 569.703C404.275 569.827 403.97 570.123 403.723 570.589L402.008 573.836L400.522 573.051L403.628 567.173L405.113 567.958L404.726 568.69C405.059 568.54 405.415 568.475 405.794 568.494C406.183 568.51 406.562 568.615 406.93 568.809ZM411.727 573.013L410.225 575.857C410.12 576.055 410.09 576.224 410.133 576.365C410.187 576.502 410.327 576.63 410.554 576.75L411.243 577.114L410.582 578.366L409.648 577.873C408.396 577.212 408.092 576.273 408.734 575.056L410.231 572.223L409.531 571.853L410.176 570.633L410.876 571.003L411.644 569.549L413.14 570.34L412.372 571.793L413.688 572.488L413.043 573.709L411.727 573.013ZM418.407 574.086C418.146 573.948 417.969 573.751 417.879 573.495C417.798 573.235 417.824 572.982 417.955 572.734C418.085 572.487 418.279 572.326 418.534 572.253C418.801 572.177 419.065 572.208 419.327 572.346C419.589 572.485 419.759 572.684 419.839 572.943C419.93 573.199 419.91 573.451 419.78 573.699C419.649 573.946 419.45 574.108 419.184 574.184C418.928 574.257 418.669 574.225 418.407 574.086ZM418.77 575.174L415.664 581.052L414.178 580.267L417.284 574.389L418.77 575.174ZM418.314 578.665C418.627 578.071 419.023 577.605 419.499 577.269C419.982 576.936 420.495 576.755 421.036 576.724C421.577 576.693 422.098 576.81 422.601 577.076C422.983 577.277 423.302 577.555 423.559 577.908C423.82 578.253 423.98 578.618 424.039 579.003L425.513 576.212L427.02 577.008L422.872 584.86L421.365 584.064L421.825 583.194C421.487 583.387 421.106 583.484 420.68 583.485C420.254 583.486 419.822 583.371 419.383 583.139C418.888 582.877 418.503 582.511 418.227 582.039C417.951 581.568 417.815 581.039 417.817 580.452C417.83 579.862 417.996 579.266 418.314 578.665ZM422.928 581.13C423.119 580.77 423.211 580.424 423.204 580.095C423.201 579.759 423.114 579.46 422.945 579.198C422.779 578.93 422.558 578.723 422.282 578.577C422.007 578.431 421.716 578.364 421.412 578.375C421.108 578.386 420.812 578.483 420.525 578.666C420.249 578.846 420.018 579.113 419.831 579.467C419.644 579.82 419.55 580.169 419.55 580.512C419.56 580.853 419.644 581.155 419.803 581.42C419.969 581.688 420.186 581.894 420.455 582.036C420.731 582.181 421.024 582.251 421.336 582.243C421.651 582.229 421.947 582.132 422.223 581.952C422.503 581.765 422.738 581.491 422.928 581.13ZM431.407 585.447C431.294 585.659 431.179 585.843 431.061 585.997L426.764 583.727C426.575 584.17 426.548 584.581 426.683 584.96C426.818 585.339 427.076 585.629 427.458 585.831C428.01 586.122 428.527 586.093 429.011 585.742L430.613 586.589C430.145 587.065 429.573 587.36 428.897 587.473C428.226 587.58 427.54 587.448 426.839 587.078C426.274 586.779 425.83 586.387 425.508 585.9C425.197 585.41 425.035 584.867 425.024 584.273C425.019 583.683 425.175 583.087 425.493 582.485C425.815 581.877 426.221 581.408 426.711 581.08C427.201 580.751 427.735 580.58 428.311 580.568C428.888 580.556 429.466 580.703 430.046 581.009C430.605 581.305 431.04 581.688 431.351 582.161C431.67 582.637 431.832 583.161 431.837 583.734C431.853 584.303 431.709 584.874 431.407 585.447ZM430.092 584.21C430.287 583.824 430.31 583.447 430.161 583.079C430.015 582.703 429.748 582.413 429.359 582.207C428.991 582.013 428.62 581.962 428.246 582.053C427.882 582.142 427.568 582.369 427.302 582.735L430.092 584.21ZM432.053 585.924C432.367 585.33 432.762 584.865 433.238 584.528C433.722 584.196 434.23 584.012 434.764 583.977C435.305 583.947 435.827 584.064 436.329 584.329C436.768 584.561 437.103 584.851 437.335 585.2C437.574 585.552 437.721 585.915 437.778 586.289L438.22 585.451L439.716 586.241L436.611 592.119L435.115 591.328L435.569 590.469C435.232 590.644 434.845 590.734 434.409 590.738C433.983 590.739 433.551 590.624 433.112 590.393C432.617 590.131 432.231 589.764 431.956 589.293C431.687 588.825 431.554 588.298 431.556 587.711C431.57 587.121 431.735 586.525 432.053 585.924ZM436.668 588.39C436.858 588.029 436.95 587.684 436.943 587.354C436.94 587.018 436.854 586.719 436.684 586.457C436.518 586.189 436.298 585.982 436.022 585.836C435.746 585.69 435.456 585.623 435.151 585.634C434.847 585.645 434.551 585.742 434.264 585.925C433.988 586.105 433.757 586.372 433.57 586.726C433.383 587.079 433.289 587.428 433.289 587.772C433.299 588.112 433.384 588.414 433.542 588.679C433.708 588.948 433.925 589.153 434.194 589.295C434.47 589.441 434.764 589.51 435.075 589.503C435.39 589.488 435.686 589.391 435.962 589.211C436.242 589.024 436.477 588.75 436.668 588.39ZM452.16 594.241L450.947 595.69L452.294 596.402L451.593 597.728L449.959 596.865L448.625 598.466L447.213 597.721L448.548 596.119L446.617 595.099L445.282 596.701L443.882 595.961L445.217 594.359L443.615 593.512L444.315 592.186L446.204 593.184L447.417 591.735L445.826 590.894L446.527 589.568L448.405 590.56L449.707 588.995L451.107 589.735L449.805 591.3L451.736 592.32L453.038 590.755L454.449 591.501L453.147 593.066L454.505 593.783L453.805 595.11L452.16 594.241ZM450.749 593.495L448.818 592.475L447.605 593.924L449.536 594.944L450.749 593.495ZM454.453 596.47C455.099 595.246 455.825 594.404 456.63 593.942C457.442 593.484 458.361 593.527 459.386 594.068C460.412 594.61 460.961 595.344 461.033 596.269C461.112 597.197 460.829 598.273 460.182 599.497C459.532 600.728 458.799 601.576 457.983 602.041C457.175 602.509 456.258 602.472 455.232 601.931C454.207 601.389 453.656 600.65 453.58 599.714C453.512 598.782 453.803 597.701 454.453 596.47ZM458.718 598.724C458.995 598.2 459.191 597.743 459.307 597.352C459.434 596.957 459.455 596.593 459.369 596.258C459.291 595.927 459.054 595.657 458.657 595.448C458.261 595.239 457.901 595.193 457.576 595.311C457.259 595.433 456.969 595.655 456.708 595.978C456.457 596.298 456.194 596.72 455.917 597.244C455.633 597.781 455.426 598.251 455.295 598.652C455.168 599.047 455.147 599.411 455.233 599.746C455.322 600.073 455.565 600.342 455.961 600.551C456.357 600.761 456.716 600.81 457.037 600.699C457.361 600.581 457.651 600.358 457.905 600.031C458.163 599.697 458.434 599.261 458.718 598.724ZM461.312 600.094C461.959 598.87 462.684 598.028 463.489 597.566C464.301 597.109 465.22 597.151 466.245 597.693C467.271 598.235 467.82 598.968 467.892 599.893C467.972 600.821 467.688 601.898 467.042 603.121C466.391 604.352 465.658 605.2 464.843 605.665C464.034 606.133 463.117 606.097 462.091 605.555C461.066 605.013 460.515 604.274 460.44 603.338C460.371 602.406 460.662 601.325 461.312 600.094ZM465.577 602.348C465.854 601.824 466.05 601.367 466.166 600.976C466.293 600.582 466.314 600.217 466.229 599.882C466.15 599.551 465.913 599.281 465.517 599.072C465.121 598.863 464.76 598.817 464.435 598.935C464.118 599.057 463.828 599.279 463.567 599.603C463.316 599.923 463.053 600.344 462.776 600.868C462.492 601.405 462.285 601.875 462.154 602.276C462.027 602.671 462.007 603.035 462.092 603.37C462.181 603.698 462.424 603.966 462.82 604.175C463.216 604.385 463.575 604.434 463.896 604.323C464.221 604.205 464.51 603.982 464.764 603.655C465.022 603.321 465.293 602.885 465.577 602.348ZM468.943 606.42C468.835 606.761 468.835 607.068 468.944 607.343C469.063 607.614 469.292 607.839 469.632 608.019C470.07 608.25 470.484 608.238 470.872 607.982C471.265 607.719 471.689 607.156 472.145 606.293C471.863 606.433 471.539 606.488 471.175 606.459C470.818 606.433 470.469 606.33 470.13 606.151C469.677 605.912 469.315 605.603 469.045 605.225C468.785 604.843 468.646 604.412 468.628 603.932C468.614 603.445 468.747 602.937 469.027 602.406C469.442 601.621 470.005 601.122 470.714 600.909C471.428 600.689 472.188 600.792 472.994 601.218C473.999 601.748 474.536 602.444 474.606 603.304C474.683 604.169 474.38 605.248 473.696 606.542C473.21 607.462 472.731 608.172 472.258 608.673C471.792 609.178 471.284 609.48 470.735 609.578C470.192 609.681 469.588 609.556 468.923 609.205C468.4 608.928 468.007 608.594 467.743 608.202C467.484 607.802 467.341 607.387 467.315 606.957C467.3 606.524 467.383 606.102 467.564 605.691L468.943 606.42ZM471.077 605.104C471.444 605.298 471.794 605.338 472.126 605.224C472.458 605.11 472.725 604.862 472.926 604.48C473.147 604.062 473.204 603.681 473.097 603.335C473.001 602.986 472.762 602.71 472.38 602.508C471.998 602.306 471.63 602.266 471.277 602.387C470.934 602.504 470.66 602.758 470.455 603.147C470.257 603.522 470.2 603.885 470.285 604.238C470.381 604.587 470.645 604.876 471.077 605.104ZM474.069 609.766C475.047 609.559 475.837 609.374 476.438 609.212C477.043 609.043 477.588 608.825 478.074 608.557C478.559 608.288 478.907 607.956 479.116 607.56C479.307 607.199 479.371 606.872 479.31 606.577C479.248 606.282 479.041 606.041 478.687 605.854C478.334 605.667 477.998 605.644 477.68 605.783C477.365 605.916 477.096 606.185 476.872 606.592L475.43 605.829C475.906 604.996 476.497 604.485 477.203 604.296C477.916 604.112 478.64 604.214 479.376 604.603C480.182 605.029 480.687 605.572 480.89 606.231C481.098 606.883 481.016 607.56 480.646 608.26C480.355 608.812 479.928 609.26 479.365 609.606C478.803 609.951 478.232 610.21 477.652 610.383C477.075 610.549 476.341 610.731 475.449 610.929L478.579 612.583L477.929 613.814L472.688 611.045L473.271 609.941L474.069 609.766Z" fill="#19DFBF" fill-opacity="0.5"/>
<path d="M75.5109 393.39L74.5299 395.247L77.0233 396.564L76.401 397.742L73.9076 396.425L72.8706 398.387L75.6822 399.873L75.0432 401.083L70.7461 398.812L74.6646 391.396L78.9617 393.666L78.3226 394.876L75.5109 393.39ZM79.5671 401.722L83.4351 397.998L85.016 398.833L79.7352 403.562L77.9315 402.609L78.8727 395.587L80.4642 396.428L79.5671 401.722ZM89.8289 404.972C89.7168 405.185 89.6017 405.368 89.4837 405.523L85.1866 403.253C84.9978 403.696 84.9707 404.107 85.1053 404.485C85.24 404.864 85.4983 405.154 85.8802 405.356C86.432 405.648 86.9497 405.618 87.4335 405.268L89.0357 406.114C88.5669 406.59 87.9949 406.885 87.3196 406.999C86.648 407.106 85.962 406.974 85.2618 406.604C84.6959 406.305 84.252 405.912 83.9301 405.425C83.619 404.935 83.4576 404.393 83.4459 403.799C83.4413 403.208 83.5978 402.612 83.9155 402.011C84.2369 401.403 84.6428 400.934 85.1333 400.605C85.6238 400.276 86.1573 400.105 86.7337 400.093C87.3101 400.081 87.8883 400.228 88.4683 400.535C89.0271 400.83 89.4623 401.214 89.7738 401.686C90.0923 402.162 90.2541 402.686 90.2592 403.259C90.275 403.828 90.1316 404.399 89.8289 404.972ZM88.5147 403.735C88.7094 403.349 88.7322 402.972 88.583 402.604C88.4375 402.229 88.1703 401.938 87.7812 401.733C87.4134 401.538 87.0424 401.487 86.6682 401.579C86.3047 401.667 85.9901 401.895 85.7242 402.261L88.5147 403.735ZM95.7008 404.37C96.4011 404.74 96.8492 405.262 97.0452 405.935C97.245 406.602 97.1356 407.331 96.717 408.123L94.8951 411.572L93.4097 410.787L95.1251 407.54C95.3718 407.073 95.4438 406.654 95.3412 406.283C95.2423 405.905 94.9913 405.61 94.5881 405.397C94.1778 405.18 93.7852 405.136 93.4101 405.263C93.0459 405.387 92.7405 405.683 92.4938 406.15L90.7784 409.396L89.293 408.612L92.3987 402.734L93.8841 403.518L93.4973 404.251C93.8299 404.101 94.1856 404.035 94.5645 404.054C94.9542 404.07 95.333 404.175 95.7008 404.37ZM100.498 408.574L98.9957 411.417C98.8911 411.615 98.8604 411.785 98.9038 411.925C98.958 412.062 99.0983 412.191 99.3246 412.31L100.014 412.675L99.3528 413.927L98.4191 413.433C97.1671 412.772 96.8625 411.833 97.5053 410.616L99.0021 407.783L98.3018 407.413L98.9465 406.193L99.6468 406.563L100.415 405.11L101.911 405.9L101.143 407.354L102.458 408.049L101.814 409.269L100.498 408.574ZM107.178 409.647C106.917 409.508 106.74 409.311 106.649 409.055C106.569 408.796 106.595 408.542 106.726 408.295C106.856 408.047 107.05 407.887 107.305 407.814C107.572 407.737 107.836 407.768 108.098 407.907C108.359 408.045 108.53 408.244 108.61 408.503C108.701 408.759 108.681 409.011 108.55 409.259C108.42 409.506 108.221 409.668 107.954 409.745C107.699 409.818 107.44 409.785 107.178 409.647ZM107.54 410.734L104.435 416.612L102.949 415.827L106.055 409.949L107.54 410.734ZM107.084 414.225C107.398 413.631 107.793 413.166 108.27 412.829C108.753 412.497 109.265 412.315 109.807 412.284C110.348 412.253 110.869 412.371 111.371 412.636C111.753 412.838 112.073 413.115 112.33 413.468C112.59 413.814 112.75 414.179 112.81 414.563L114.284 411.773L115.791 412.569L111.642 420.42L110.136 419.624L110.595 418.754C110.258 418.947 109.877 419.044 109.451 419.045C109.025 419.046 108.593 418.931 108.154 418.699C107.659 418.438 107.274 418.071 106.998 417.6C106.722 417.128 106.586 416.599 106.588 416.012C106.601 415.422 106.767 414.826 107.084 414.225ZM111.699 416.691C111.89 416.33 111.982 415.985 111.975 415.655C111.972 415.319 111.885 415.02 111.716 414.759C111.55 414.49 111.329 414.283 111.053 414.137C110.777 413.991 110.487 413.924 110.183 413.935C109.878 413.946 109.583 414.043 109.296 414.227C109.02 414.406 108.789 414.673 108.602 415.027C108.415 415.381 108.321 415.729 108.321 416.073C108.331 416.413 108.415 416.715 108.574 416.98C108.74 417.249 108.957 417.454 109.226 417.596C109.502 417.742 109.795 417.811 110.107 417.804C110.422 417.789 110.718 417.692 110.994 417.512C111.273 417.325 111.509 417.051 111.699 416.691ZM120.177 421.007C120.065 421.219 119.95 421.403 119.832 421.558L115.535 419.287C115.346 419.73 115.319 420.141 115.454 420.52C115.589 420.899 115.847 421.189 116.229 421.391C116.781 421.683 117.298 421.653 117.782 421.302L119.384 422.149C118.915 422.625 118.343 422.92 117.668 423.034C116.997 423.14 116.311 423.009 115.61 422.639C115.044 422.34 114.601 421.947 114.279 421.46C113.968 420.97 113.806 420.428 113.794 419.833C113.79 419.243 113.946 418.647 114.264 418.046C114.585 417.437 114.991 416.969 115.482 416.64C115.972 416.311 116.506 416.14 117.082 416.128C117.659 416.116 118.237 416.263 118.817 416.57C119.376 416.865 119.811 417.249 120.122 417.721C120.441 418.197 120.603 418.721 120.608 419.294C120.624 419.863 120.48 420.434 120.177 421.007ZM118.863 419.77C119.058 419.384 119.081 419.007 118.932 418.639C118.786 418.263 118.519 417.973 118.13 417.767C117.762 417.573 117.391 417.522 117.017 417.614C116.653 417.702 116.339 417.929 116.073 418.296L118.863 419.77ZM120.824 421.484C121.138 420.89 121.533 420.425 122.009 420.089C122.492 419.756 123.001 419.572 123.535 419.538C124.076 419.507 124.598 419.624 125.1 419.889C125.539 420.121 125.874 420.411 126.106 420.76C126.345 421.113 126.492 421.476 126.548 421.849L126.991 421.011L128.487 421.801L125.382 427.679L123.886 426.889L124.34 426.029C124.003 426.204 123.616 426.294 123.18 426.299C122.754 426.3 122.321 426.185 121.883 425.953C121.388 425.691 121.002 425.325 120.727 424.853C120.458 424.386 120.325 423.858 120.327 423.272C120.341 422.681 120.506 422.086 120.824 421.484ZM125.438 423.95C125.629 423.589 125.721 423.244 125.714 422.915C125.711 422.578 125.624 422.279 125.455 422.018C125.289 421.749 125.068 421.542 124.793 421.396C124.517 421.251 124.227 421.183 123.922 421.194C123.618 421.205 123.322 421.302 123.035 421.486C122.759 421.666 122.528 421.932 122.341 422.286C122.154 422.64 122.06 422.988 122.06 423.332C122.07 423.672 122.155 423.975 122.313 424.239C122.479 424.508 122.696 424.713 122.965 424.855C123.241 425.001 123.535 425.07 123.846 425.063C124.161 425.048 124.457 424.951 124.733 424.771C125.013 424.584 125.248 424.311 125.438 423.95ZM140.931 429.801L139.718 431.25L141.065 431.962L140.364 433.288L138.73 432.425L137.395 434.027L135.984 433.281L137.319 431.679L135.388 430.659L134.053 432.261L132.653 431.521L133.988 429.919L132.386 429.073L133.086 427.746L134.975 428.744L136.188 427.295L134.597 426.454L135.298 425.128L137.176 426.12L138.477 424.555L139.878 425.295L138.576 426.86L140.507 427.881L141.809 426.315L143.22 427.061L141.918 428.626L143.276 429.344L142.576 430.67L140.931 429.801ZM139.52 429.055L137.589 428.035L136.375 429.484L138.306 430.504L139.52 429.055ZM142.48 434.569C143.458 434.362 144.247 434.177 144.849 434.015C145.454 433.846 145.999 433.628 146.484 433.36C146.97 433.091 147.317 432.759 147.527 432.363C147.717 432.002 147.782 431.674 147.721 431.38C147.659 431.085 147.452 430.844 147.098 430.657C146.744 430.47 146.408 430.447 146.09 430.586C145.776 430.719 145.507 430.988 145.283 431.395L143.84 430.632C144.317 429.799 144.908 429.288 145.614 429.099C146.327 428.915 147.051 429.017 147.786 429.406C148.593 429.832 149.098 430.375 149.301 431.034C149.508 431.686 149.427 432.363 149.057 433.063C148.765 433.615 148.339 434.063 147.776 434.408C147.214 434.754 146.642 435.013 146.062 435.186C145.486 435.352 144.752 435.534 143.86 435.732L146.99 437.386L146.34 438.617L141.098 435.848L141.681 434.744L142.48 434.569ZM150.403 432.756L151.126 431.387L153.683 432.738L149.596 440.473L148.068 439.666L151.432 433.3L150.403 432.756ZM154.247 434.787L154.97 433.418L157.527 434.77L153.44 442.504L151.913 441.697L155.276 435.331L154.247 434.787ZM156.26 441.85C157.238 441.643 158.028 441.458 158.629 441.296C159.234 441.127 159.78 440.909 160.265 440.641C160.751 440.372 161.098 440.04 161.307 439.644C161.498 439.283 161.563 438.956 161.501 438.661C161.44 438.366 161.232 438.125 160.879 437.938C160.525 437.751 160.189 437.728 159.871 437.867C159.557 438 159.288 438.269 159.064 438.676L157.621 437.913C158.098 437.08 158.689 436.569 159.394 436.38C160.107 436.196 160.831 436.298 161.567 436.687C162.373 437.113 162.878 437.656 163.082 438.315C163.289 438.967 163.208 439.644 162.838 440.344C162.546 440.896 162.119 441.344 161.557 441.69C160.994 442.035 160.423 442.294 159.843 442.467C159.267 442.633 158.533 442.815 157.641 443.013L160.771 444.667L160.12 445.898L154.879 443.129L155.462 442.025L156.26 441.85Z" fill="#FFBF00" fill-opacity="0.5"/>
<path d="M174.616 215.296C174.407 215.692 174.115 216.013 173.741 216.259C173.374 216.508 172.933 216.632 172.418 216.632C171.909 216.634 171.351 216.475 170.743 216.154L169.501 215.498L167.999 218.341L166.514 217.557L170.426 210.151L173.153 211.591C173.726 211.894 174.162 212.251 174.46 212.662C174.759 213.073 174.916 213.504 174.931 213.956C174.953 214.411 174.848 214.857 174.616 215.296ZM171.313 214.921C171.723 215.138 172.076 215.207 172.371 215.127C172.67 215.041 172.909 214.828 173.088 214.489C173.469 213.767 173.257 213.193 172.451 212.767L171.273 212.145L170.135 214.299L171.313 214.921ZM175.528 222.442C174.962 222.143 174.519 221.75 174.197 221.263C173.879 220.769 173.71 220.223 173.691 219.625C173.68 219.031 173.833 218.433 174.15 217.832C174.468 217.231 174.879 216.769 175.384 216.448C175.895 216.13 176.446 215.969 177.037 215.964C177.631 215.953 178.211 216.096 178.777 216.395C179.343 216.694 179.789 217.092 180.114 217.59C180.443 218.081 180.617 218.625 180.636 219.223C180.661 219.825 180.516 220.426 180.198 221.027C179.88 221.629 179.462 222.086 178.943 222.4C178.432 222.718 177.875 222.881 177.274 222.889C176.683 222.894 176.101 222.744 175.528 222.442ZM176.212 221.147C176.481 221.289 176.766 221.358 177.066 221.354C177.378 221.347 177.674 221.25 177.953 221.063C178.233 220.876 178.472 220.595 178.67 220.22C178.965 219.661 179.043 219.155 178.903 218.701C178.773 218.243 178.497 217.903 178.072 217.678C177.648 217.454 177.21 217.418 176.76 217.568C176.32 217.716 175.952 218.069 175.657 218.628C175.362 219.187 175.272 219.691 175.387 220.141C175.513 220.588 175.788 220.923 176.212 221.147ZM181.934 225.826C181.453 225.572 181.066 225.259 180.774 224.887C180.485 224.509 180.306 224.111 180.237 223.694C180.175 223.282 180.228 222.889 180.397 222.517L181.893 223.308C181.802 223.549 181.813 223.794 181.925 224.044C182.045 224.297 182.25 224.5 182.54 224.653C182.823 224.803 183.072 224.862 183.287 224.831C183.51 224.804 183.668 224.702 183.761 224.525C183.862 224.334 183.838 224.14 183.688 223.944C183.549 223.744 183.298 223.475 182.933 223.138C182.551 222.8 182.248 222.5 182.025 222.237C181.809 221.978 181.66 221.678 181.578 221.336C181.503 220.998 181.571 220.631 181.78 220.235C181.952 219.909 182.201 219.661 182.527 219.489C182.86 219.321 183.241 219.251 183.669 219.279C184.105 219.31 184.56 219.451 185.034 219.701C185.734 220.071 186.2 220.543 186.43 221.117C186.664 221.684 186.646 222.276 186.374 222.893L184.952 222.142C185.055 221.897 185.053 221.661 184.947 221.433C184.852 221.202 184.659 221.01 184.369 220.856C184.101 220.714 183.866 220.654 183.665 220.674C183.471 220.698 183.327 220.799 183.234 220.976C183.129 221.174 183.148 221.378 183.29 221.589C183.436 221.793 183.689 222.058 184.051 222.384C184.419 222.715 184.711 223.009 184.927 223.268C185.143 223.527 185.287 223.829 185.358 224.174C185.44 224.516 185.381 224.883 185.183 225.276C185.003 225.616 184.747 225.869 184.414 226.037C184.088 226.209 183.707 226.279 183.271 226.248C182.846 226.213 182.4 226.073 181.934 225.826ZM189.707 223.853L188.204 226.696C188.1 226.894 188.069 227.064 188.112 227.204C188.167 227.341 188.307 227.47 188.533 227.589L189.223 227.954L188.561 229.206L187.628 228.712C186.376 228.051 186.071 227.112 186.714 225.895L188.211 223.062L187.511 222.692L188.155 221.472L188.855 221.842L189.623 220.389L191.119 221.179L190.351 222.633L191.667 223.328L191.022 224.548L189.707 223.853ZM196.301 226.862C196.634 226.694 197.013 226.609 197.439 226.608C197.876 226.604 198.31 226.715 198.741 226.943C199.243 227.209 199.631 227.572 199.903 228.032C200.183 228.496 200.318 229.02 200.308 229.603C200.309 230.183 200.151 230.774 199.833 231.375C199.516 231.976 199.113 232.447 198.626 232.786C198.15 233.123 197.639 233.31 197.095 233.348C196.557 233.389 196.037 233.278 195.535 233.012C195.103 232.784 194.768 232.494 194.529 232.142C194.297 231.793 194.149 231.43 194.086 231.053L192.163 234.692L190.678 233.907L195.264 225.228L196.749 226.013L196.301 226.862ZM198.316 230.573C198.503 230.219 198.59 229.876 198.576 229.543C198.572 229.207 198.486 228.908 198.317 228.646C198.154 228.388 197.935 228.187 197.659 228.041C197.39 227.899 197.098 227.835 196.783 227.849C196.479 227.861 196.183 227.958 195.896 228.141C195.616 228.328 195.383 228.598 195.196 228.952C195.009 229.306 194.918 229.651 194.921 229.987C194.931 230.327 195.015 230.63 195.174 230.895C195.344 231.156 195.563 231.358 195.832 231.5C196.107 231.646 196.399 231.709 196.708 231.691C197.023 231.677 197.32 231.576 197.6 231.389C197.887 231.206 198.126 230.934 198.316 230.573ZM204.983 227.839L200.834 235.69L199.349 234.905L203.497 227.054L204.983 227.839ZM203.484 233.304C203.798 232.709 204.193 232.244 204.669 231.908C205.153 231.575 205.661 231.391 206.195 231.357C206.737 231.326 207.258 231.443 207.76 231.709C208.199 231.94 208.534 232.231 208.766 232.579C209.005 232.932 209.153 233.295 209.209 233.668L209.652 232.83L211.148 233.62L208.042 239.498L206.546 238.708L207 237.849C206.663 238.023 206.277 238.113 205.84 238.118C205.414 238.119 204.982 238.004 204.543 237.772C204.048 237.51 203.663 237.144 203.387 236.672C203.118 236.205 202.985 235.677 202.988 235.091C203.001 234.5 203.166 233.905 203.484 233.304ZM208.099 235.769C208.289 235.408 208.381 235.063 208.374 234.734C208.371 234.397 208.285 234.098 208.115 233.837C207.949 233.568 207.729 233.361 207.453 233.215C207.177 233.07 206.887 233.002 206.582 233.013C206.278 233.024 205.982 233.122 205.695 233.305C205.419 233.485 205.188 233.752 205.001 234.105C204.814 234.459 204.721 234.807 204.72 235.151C204.73 235.491 204.815 235.794 204.973 236.058C205.139 236.327 205.356 236.532 205.625 236.674C205.901 236.82 206.195 236.889 206.506 236.882C206.822 236.868 207.117 236.77 207.393 236.591C207.673 236.404 207.908 236.13 208.099 235.769ZM215.9 236.023C216.601 236.393 217.049 236.915 217.245 237.588C217.445 238.255 217.335 238.984 216.917 239.777L215.095 243.225L213.609 242.44L215.325 239.193C215.571 238.726 215.643 238.308 215.541 237.937C215.442 237.559 215.191 237.263 214.788 237.05C214.377 236.833 213.985 236.789 213.61 236.916C213.246 237.041 212.94 237.336 212.693 237.803L210.978 241.05L209.493 240.265L212.598 234.387L214.084 235.172L213.697 235.904C214.03 235.754 214.385 235.688 214.764 235.708C215.154 235.724 215.533 235.829 215.9 236.023ZM230.606 245.326L229.393 246.775L230.74 247.487L230.039 248.814L228.405 247.95L227.07 249.552L225.659 248.807L226.994 247.205L225.063 246.184L223.728 247.786L222.328 247.046L223.663 245.444L222.06 244.598L222.761 243.272L224.65 244.27L225.863 242.821L224.272 241.98L224.972 240.653L226.85 241.646L228.152 240.081L229.553 240.821L228.251 242.386L230.182 243.406L231.484 241.841L232.895 242.586L231.593 244.151L232.951 244.869L232.251 246.195L230.606 245.326ZM229.195 244.581L227.264 243.561L226.05 245.009L227.981 246.03L229.195 244.581ZM232.899 247.556C233.545 246.332 234.271 245.489 235.076 245.028C235.888 244.57 236.806 244.612 237.832 245.154C238.858 245.696 239.407 246.429 239.479 247.354C239.558 248.283 239.275 249.359 238.628 250.583C237.978 251.814 237.245 252.661 236.429 253.126C235.621 253.595 234.704 253.558 233.678 253.016C232.652 252.474 232.102 251.736 232.026 250.8C231.958 249.868 232.248 248.786 232.899 247.556ZM237.164 249.809C237.441 249.286 237.637 248.829 237.753 248.438C237.88 248.043 237.901 247.679 237.815 247.344C237.737 247.013 237.499 246.743 237.103 246.533C236.707 246.324 236.347 246.279 236.022 246.396C235.704 246.518 235.415 246.741 235.154 247.064C234.903 247.384 234.639 247.806 234.363 248.329C234.079 248.867 233.872 249.336 233.741 249.738C233.614 250.132 233.593 250.497 233.679 250.831C233.768 251.159 234.011 251.428 234.407 251.637C234.803 251.846 235.161 251.895 235.482 251.785C235.807 251.667 236.097 251.444 236.351 251.117C236.609 250.783 236.88 250.347 237.164 249.809ZM239.014 253.718C239.992 253.511 240.782 253.327 241.383 253.165C241.988 252.996 242.533 252.777 243.019 252.509C243.504 252.241 243.852 251.909 244.061 251.513C244.252 251.152 244.316 250.824 244.255 250.529C244.193 250.234 243.986 249.993 243.632 249.807C243.279 249.62 242.943 249.596 242.625 249.736C242.31 249.868 242.041 250.138 241.817 250.544L240.374 249.782C240.851 248.948 241.442 248.437 242.148 248.249C242.861 248.064 243.585 248.167 244.321 248.555C245.127 248.981 245.632 249.524 245.835 250.183C246.043 250.836 245.961 251.512 245.591 252.212C245.3 252.764 244.873 253.213 244.31 253.558C243.748 253.903 243.177 254.162 242.597 254.335C242.02 254.501 241.286 254.684 240.394 254.882L243.524 256.536L242.874 257.766L237.633 254.997L238.216 253.894L239.014 253.718ZM246.622 257.1C246.514 257.441 246.514 257.749 246.623 258.023C246.742 258.294 246.971 258.52 247.311 258.699C247.749 258.931 248.163 258.919 248.552 258.662C248.944 258.399 249.368 257.836 249.824 256.973C249.542 257.114 249.218 257.169 248.854 257.139C248.497 257.114 248.148 257.011 247.809 256.831C247.356 256.592 246.994 256.284 246.724 255.905C246.464 255.524 246.325 255.093 246.307 254.613C246.293 254.126 246.426 253.617 246.707 253.087C247.121 252.302 247.684 251.803 248.393 251.589C249.107 251.369 249.867 251.472 250.673 251.898C251.678 252.429 252.215 253.124 252.285 253.985C252.362 254.849 252.059 255.928 251.375 257.223C250.889 258.142 250.41 258.853 249.937 259.354C249.471 259.859 248.963 260.16 248.414 260.259C247.871 260.361 247.267 260.237 246.602 259.886C246.079 259.609 245.686 259.275 245.422 258.882C245.163 258.483 245.02 258.068 244.994 257.638C244.979 257.205 245.062 256.782 245.243 256.371L246.622 257.1ZM248.756 255.784C249.123 255.979 249.473 256.019 249.805 255.905C250.137 255.79 250.404 255.542 250.605 255.16C250.826 254.743 250.883 254.361 250.776 254.015C250.68 253.666 250.441 253.391 250.059 253.189C249.677 252.987 249.31 252.947 248.956 253.067C248.614 253.185 248.339 253.438 248.134 253.827C247.936 254.202 247.879 254.566 247.965 254.919C248.06 255.268 248.324 255.557 248.756 255.784ZM251.748 260.446C252.726 260.239 253.516 260.055 254.117 259.893C254.722 259.724 255.267 259.505 255.753 259.237C256.238 258.969 256.586 258.637 256.795 258.241C256.986 257.88 257.05 257.552 256.989 257.257C256.928 256.963 256.72 256.722 256.366 256.535C256.013 256.348 255.677 256.324 255.359 256.464C255.044 256.596 254.775 256.866 254.552 257.272L253.109 256.51C253.585 255.676 254.177 255.165 254.882 254.977C255.595 254.793 256.319 254.895 257.055 255.283C257.861 255.709 258.366 256.252 258.569 256.912C258.777 257.564 258.695 258.24 258.325 258.941C258.034 259.492 257.607 259.941 257.044 260.286C256.482 260.631 255.911 260.89 255.331 261.064C254.754 261.23 254.02 261.412 253.128 261.61L256.258 263.264L255.608 264.495L250.367 261.725L250.95 260.622L251.748 260.446Z" fill="#00FFAA" fill-opacity="0.5"/>
<rect x="250.503" y="69.6631" width="148" height="3" rx="1.5" transform="rotate(27.85 250.503 69.6631)" fill="#F55F44" fill-opacity="0.5"/>
<rect x="554.559" y="234.837" width="148" height="3" rx="1.5" transform="rotate(27.85 554.559 234.837)" fill="#1B6FD2" fill-opacity="0.5"/>
<rect x="155.971" y="235.737" width="119" height="3" rx="1.5" transform="rotate(27.85 155.971 235.737)" fill="#00FFAA" fill-opacity="0.5"/>
<rect x="60.6708" y="416.109" width="125" height="3" rx="1.5" transform="rotate(27.85 60.6708 416.109)" fill="#FFBF00" fill-opacity="0.5"/>
<rect x="371.9" y="580.549" width="33" height="3" rx="1.5" transform="rotate(27.85 371.9 580.549)" fill="#19DFBF" fill-opacity="0.5"/>
<rect x="242.562" y="84.6941" width="104" height="3" rx="1.5" transform="rotate(27.85 242.562 84.6941)" fill="#F55F44" fill-opacity="0.5"/>
<rect x="546.617" y="249.868" width="148" height="3" rx="1.5" transform="rotate(27.85 546.617 249.868)" fill="#1B6FD2" fill-opacity="0.5"/>
<rect x="148.029" y="250.768" width="148" height="3" rx="1.5" transform="rotate(27.85 148.029 250.768)" fill="#00FFAA" fill-opacity="0.5"/>
<rect x="52.7291" y="431.14" width="84" height="3" rx="1.5" transform="rotate(27.85 52.7291 431.14)" fill="#FFBF00" fill-opacity="0.5"/>
<rect x="363.958" y="595.58" width="118" height="3" rx="1.5" transform="rotate(27.85 363.958 595.58)" fill="#19DFBF" fill-opacity="0.5"/>
<rect x="234.62" y="99.7251" width="175" height="3" rx="1.5" transform="rotate(27.85 234.62 99.7251)" fill="#F55F44" fill-opacity="0.5"/>
<rect x="538.675" y="264.899" width="27" height="3" rx="1.5" transform="rotate(27.85 538.675 264.899)" fill="#1B6FD2" fill-opacity="0.5"/>
<rect x="140.555" y="264.915" width="175" height="3" rx="1.5" transform="rotate(27.85 140.555 264.915)" fill="#00FFAA" fill-opacity="0.5"/>
<rect x="44.7874" y="446.171" width="102" height="3" rx="1.5" transform="rotate(27.85 44.7874 446.171)" fill="#FFBF00" fill-opacity="0.5"/>
<rect x="356.017" y="610.61" width="89" height="3" rx="1.5" transform="rotate(27.85 356.017 610.61)" fill="#19DFBF" fill-opacity="0.5"/>
</svg>
