<svg width="171" height="186" viewBox="0 0 171 186" fill="none" xmlns="http://www.w3.org/2000/svg">
<circle cx="85.5" cy="100.5" r="85.5" fill="#00FFAA" fill-opacity="0.5"/>
<path d="M70.52 88V78.97H87.39V130H77.31V88H70.52Z" fill="black"/>
<path d="M103.43 95.27C102.07 95.27 100.85 95.03 99.77 94.55C98.69 94.05 97.83 93.38 97.19 92.54C96.57 91.7 96.23 90.77 96.17 89.75H100.4C100.48 90.39 100.79 90.92 101.33 91.34C101.89 91.76 102.58 91.97 103.4 91.97C104.2 91.97 104.82 91.81 105.26 91.49C105.72 91.17 105.95 90.76 105.95 90.26C105.95 89.72 105.67 89.32 105.11 89.06C104.57 88.78 103.7 88.48 102.5 88.16C101.26 87.86 100.24 87.55 99.44 87.23C98.66 86.91 97.98 86.42 97.4 85.76C96.84 85.1 96.56 84.21 96.56 83.09C96.56 82.17 96.82 81.33 97.34 80.57C97.88 79.81 98.64 79.21 99.62 78.77C100.62 78.33 101.79 78.11 103.13 78.11C105.11 78.11 106.69 78.61 107.87 79.61C109.05 80.59 109.7 81.92 109.82 83.6H105.8C105.74 82.94 105.46 82.42 104.96 82.04C104.48 81.64 103.83 81.44 103.01 81.44C102.25 81.44 101.66 81.58 101.24 81.86C100.84 82.14 100.64 82.53 100.64 83.03C100.64 83.59 100.92 84.02 101.48 84.32C102.04 84.6 102.91 84.89 104.09 85.19C105.29 85.49 106.28 85.8 107.06 86.12C107.84 86.44 108.51 86.94 109.07 87.62C109.65 88.28 109.95 89.16 109.97 90.26C109.97 91.22 109.7 92.08 109.16 92.84C108.64 93.6 107.88 94.2 106.88 94.64C105.9 95.06 104.75 95.27 103.43 95.27ZM118.308 81.83V89.87C118.308 90.43 118.438 90.84 118.698 91.1C118.978 91.34 119.438 91.46 120.078 91.46H122.028V95H119.388C115.848 95 114.078 93.28 114.078 89.84V81.83H112.098V78.38H114.078V74.27H118.308V78.38H122.028V81.83H118.308Z" fill="black"/>
</svg>
