<svg width="107" height="143" viewBox="0 0 107 143" fill="none" xmlns="http://www.w3.org/2000/svg">
<circle cx="53.5" cy="89.5" r="53.5" fill="#FFEC3D"/>
<path d="M38.85 100.1C42.05 97.4333 44.6 95.2167 46.5 93.45C48.4 91.65 49.9833 89.7833 51.25 87.85C52.5167 85.9167 53.15 84.0167 53.15 82.15C53.15 80.45 52.75 79.1167 51.95 78.15C51.15 77.1833 49.9167 76.7 48.25 76.7C46.5833 76.7 45.3 77.2667 44.4 78.4C43.5 79.5 43.0333 81.0167 43 82.95H36.2C36.3333 78.95 37.5167 75.9167 39.75 73.85C42.0167 71.7833 44.8833 70.75 48.35 70.75C52.15 70.75 55.0667 71.7667 57.1 73.8C59.1333 75.8 60.15 78.45 60.15 81.75C60.15 84.35 59.45 86.8333 58.05 89.2C56.65 91.5667 55.05 93.6333 53.25 95.4C51.45 97.1333 49.1 99.2333 46.2 101.7H60.95V107.5H36.25V102.3L38.85 100.1Z" fill="black"/>
<path d="M72.52 72.76C73.84 72.76 74.9067 73.18 75.72 74.02C76.5333 74.8467 76.94 76.0067 76.94 77.5V84H74.14V77.88C74.14 77 73.92 76.3267 73.48 75.86C73.04 75.38 72.44 75.14 71.68 75.14C70.9067 75.14 70.2933 75.38 69.84 75.86C69.4 76.3267 69.18 77 69.18 77.88V84H66.38V72.92H69.18V74.3C69.5533 73.82 70.0267 73.4467 70.6 73.18C71.1867 72.9 71.8267 72.76 72.52 72.76ZM78.8827 78.42C78.8827 77.3 79.1027 76.3067 79.5427 75.44C79.996 74.5733 80.6093 73.9067 81.3827 73.44C82.156 72.9733 83.016 72.74 83.9627 72.74C84.6827 72.74 85.3693 72.9 86.0227 73.22C86.676 73.5267 87.196 73.94 87.5827 74.46V69.2H90.4227V84H87.5827V82.36C87.236 82.9067 86.7493 83.3467 86.1227 83.68C85.496 84.0133 84.7693 84.18 83.9427 84.18C83.0093 84.18 82.156 83.94 81.3827 83.46C80.6093 82.98 79.996 82.3067 79.5427 81.44C79.1027 80.56 78.8827 79.5533 78.8827 78.42ZM87.6027 78.46C87.6027 77.78 87.4693 77.2 87.2027 76.72C86.936 76.2267 86.576 75.8533 86.1227 75.6C85.6693 75.3333 85.1827 75.2 84.6627 75.2C84.1427 75.2 83.6627 75.3267 83.2227 75.58C82.7827 75.8333 82.4227 76.2067 82.1427 76.7C81.876 77.18 81.7427 77.7533 81.7427 78.42C81.7427 79.0867 81.876 79.6733 82.1427 80.18C82.4227 80.6733 82.7827 81.0533 83.2227 81.32C83.676 81.5867 84.156 81.72 84.6627 81.72C85.1827 81.72 85.6693 81.5933 86.1227 81.34C86.576 81.0733 86.936 80.7 87.2027 80.22C87.4693 79.7267 87.6027 79.14 87.6027 78.46Z" fill="black"/>
</svg>
