<svg width="107" height="143" viewBox="0 0 107 143" fill="none" xmlns="http://www.w3.org/2000/svg">
<circle cx="53.5" cy="89.5" r="53.5" fill="#FFEC3D"/>
<path d="M35.75 81.15C35.9167 77.8167 37.0833 75.25 39.25 73.45C41.45 71.6167 44.3333 70.7 47.9 70.7C50.3333 70.7 52.4167 71.1333 54.15 72C55.8833 72.8333 57.1833 73.9833 58.05 75.45C58.95 76.8833 59.4 78.5167 59.4 80.35C59.4 82.45 58.85 84.2333 57.75 85.7C56.6833 87.1333 55.4 88.1 53.9 88.6V88.8C55.8333 89.4 57.3333 90.4667 58.4 92C59.5 93.5333 60.05 95.5 60.05 97.9C60.05 99.9 59.5833 101.683 58.65 103.25C57.75 104.817 56.4 106.05 54.6 106.95C52.8333 107.817 50.7 108.25 48.2 108.25C44.4333 108.25 41.3667 107.3 39 105.4C36.6333 103.5 35.3833 100.7 35.25 97H42.05C42.1167 98.6333 42.6667 99.95 43.7 100.95C44.7667 101.917 46.2167 102.4 48.05 102.4C49.75 102.4 51.05 101.933 51.95 101C52.8833 100.033 53.35 98.8 53.35 97.3C53.35 95.3 52.7167 93.8667 51.45 93C50.1833 92.1333 48.2167 91.7 45.55 91.7H44.1V85.95H45.55C50.2833 85.95 52.65 84.3667 52.65 81.2C52.65 79.7667 52.2167 78.65 51.35 77.85C50.5167 77.05 49.3 76.65 47.7 76.65C46.1333 76.65 44.9167 77.0833 44.05 77.95C43.2167 78.7833 42.7333 79.85 42.6 81.15H35.75Z" fill="black"/>
<path d="M68.18 74.64C68.54 74.0533 69.0067 73.5933 69.58 73.26C70.1667 72.9267 70.8333 72.76 71.58 72.76V75.7H70.84C69.96 75.7 69.2933 75.9067 68.84 76.32C68.4 76.7333 68.18 77.4533 68.18 78.48V84H65.38V72.92H68.18V74.64ZM72.7459 78.42C72.7459 77.3 72.9659 76.3067 73.4059 75.44C73.8593 74.5733 74.4726 73.9067 75.2459 73.44C76.0193 72.9733 76.8793 72.74 77.8259 72.74C78.5459 72.74 79.2326 72.9 79.8859 73.22C80.5393 73.5267 81.0593 73.94 81.4459 74.46V69.2H84.2859V84H81.4459V82.36C81.0993 82.9067 80.6126 83.3467 79.9859 83.68C79.3593 84.0133 78.6326 84.18 77.8059 84.18C76.8726 84.18 76.0193 83.94 75.2459 83.46C74.4726 82.98 73.8593 82.3067 73.4059 81.44C72.9659 80.56 72.7459 79.5533 72.7459 78.42ZM81.4659 78.46C81.4659 77.78 81.3326 77.2 81.0659 76.72C80.7993 76.2267 80.4393 75.8533 79.9859 75.6C79.5326 75.3333 79.0459 75.2 78.5259 75.2C78.0059 75.2 77.5259 75.3267 77.0859 75.58C76.6459 75.8333 76.2859 76.2067 76.0059 76.7C75.7393 77.18 75.6059 77.7533 75.6059 78.42C75.6059 79.0867 75.7393 79.6733 76.0059 80.18C76.2859 80.6733 76.6459 81.0533 77.0859 81.32C77.5393 81.5867 78.0193 81.72 78.5259 81.72C79.0459 81.72 79.5326 81.5933 79.9859 81.34C80.4393 81.0733 80.7993 80.7 81.0659 80.22C81.3326 79.7267 81.4659 79.14 81.4659 78.46Z" fill="black"/>
</svg>
